<svg id="Capa_1" data-name="Capa 1" xmlns="http://www.w3.org/2000/svg" viewBox="0 0 492.26 527.96"><path d="M74.12,397.6c-2.3-2.75-4.46-5.37-6.66-7.94a10.59,10.59,0,0,1-2.66-7.3c.09-8.85.1-17.7.11-26.54a19,19,0,0,0-.2-3.38c-.7-3.92-1.52-4.57-5.41-4.57-5,0-10,0-15,0a2.14,2.14,0,0,1-2.3-1.4c-3.15-6.66-6.42-13.27-9.53-19.95a8.79,8.79,0,0,1,.21-7.56c3-6.56,6.2-13.09,9.37-19.6,8.35-17.15,16.67-34.31,25.14-51.4a11,11,0,0,0,0-10.75c-3.11-6.23-5.67-12.74-8.5-19.12a10.22,10.22,0,0,1-.14-8.32c3.95-9.73,7.87-19.47,11.87-29.18q11.09-26.91,22.27-53.78a6.53,6.53,0,0,0-.06-5.37q-5.55-13.33-11-26.74c-2.86-7.11-2.75-7.18,2.81-12.49,2.3-2.2,4.4-4.62,6.57-7,1.13-1.22,2.2-2.5,3.34-3.7,3.32-3.48,4.45-3.53,8.23-.55,7.88,6.21,15.8,12.38,23.65,18.64,1.24,1,2,1,3.16-.12,2.76-2.68,5.59-5.3,8.52-7.79a3.41,3.41,0,0,0,1.26-3.09c-.45-9.7-1-19.4-1.24-29.11-.21-7.06-1.58-5.29,5.08-8.57,4.36-2.16,9.15-3.47,13.8-5a2.43,2.43,0,0,1,2.15.65c4.31,5.65,8.49,11.4,12.74,17.1,1.86,2.5,3.78,5,5.63,7.39,6-2.57,11.94-5.06,17.81-7.69.55-.25.91-1.3,1-2,1.41-8.31,2.76-16.64,4.15-25a4.89,4.89,0,0,1,.65-2.07,3,3,0,0,1,1.81-1.29c6.71-.31,13.43-.5,20.14-.7,1.2,0,2.4.06,3.59,0,3.59-.22,5.73,1.51,6.91,4.79,2.37,6.57,4.73,13.13,7.25,19.64,2,5.12,2.09,5.08,7.63,5.08,2.2,0,4.4.09,6.59,0a2.89,2.89,0,0,0,1.91-1.16c1.5-2.35,2.77-4.85,4.26-7.2,4.11-6.53,8.31-13,12.41-19.52a2.92,2.92,0,0,1,2.85-1.63q9.27.12,18.55,0a2.12,2.12,0,0,1,2.47,1.7c.68,2.5,1.48,5,2.14,7.47,2,7.57,4,15.15,5.93,22.75.9,3.66.77,3.69,4.68,3.77,1.06,0,2.13,0,3.19.07a10.91,10.91,0,0,0,7.77-2.49c8.37-6.45,16.85-12.77,25.18-19.29,2.07-1.62,3.93-2.07,6.38-1.08,5,2,10.16,3.93,15.28,5.79a2.29,2.29,0,0,1,1.71,2.84c-1,8.51-2,17-3,25.53-.33,2.84-.74,5.68-.88,8.53a4.28,4.28,0,0,0,1,2.82c2.18,2.41,4.59,4.61,6.84,7a2.45,2.45,0,0,0,3.34.46c7.32-3.78,14.72-7.41,22-11.28,6.77-3.61,6.89-3.69,12.87,1,4.24,3.32,8.48,6.65,12.75,9.93a2.31,2.31,0,0,1,.81,3.2c-3.13,7.69-5.75,15.61-9.27,23.11-1.85,3.94-1.87,6.93.6,10.32a43,43,0,0,1,3.55,6.23c.71,1.45,1.51,1.87,3.11,1.42,6.71-1.91,13.46-3.67,20.17-5.57,4.22-1.19,8.4-2.53,12.6-3.78,2.62-.78,3.52-.44,4.64,2,3.37,7.29,6.69,14.61,10.05,21.91a4.62,4.62,0,0,1-.56,5.06c-.56.74-1.14,1.47-1.77,2.15-6.33,6.91-12.65,13.84-19.07,20.66a3.05,3.05,0,0,0-.73,3.71c1.34,3.26,2.57,6.56,4,9.79a2.31,2.31,0,0,0,1.69.94c7.56.59,15.12,1.09,22.68,1.66,3.7.28,7.41.58,11.11,1,3,.32,3.54,1,3.54,4,0,6.06,0,12.11,0,18.16a2.78,2.78,0,0,1-1.57,2.85c-8.63,5-17.19,10.12-25.81,15.11a3.67,3.67,0,0,0-2.19,3.74c.15,4.85.09,9.71,0,14.56,0,1.34.28,1.82,1.75,2.19,8,2,15.93,4.17,23.89,6.27,1.42.38,1.94,1.15,1.94,2.7,0,5.65.14,11.3.23,17,0,.79,0,1.59,0,2.39-.14,5.21-.67,5.87-5.72,6.91q-12.58,2.58-25.19,5.12c-1.09.22-2.23.26-3.5.4-.46,6.1-.95,12.18-1.34,18.26a2.13,2.13,0,0,0,1,1.45c7,4.65,14,9.23,20.89,13.94a2.84,2.84,0,0,1,.73,2.39c-.79,4.24-1.74,8.45-2.66,12.67-.51,2.34-1,4.67-1.6,7-.66,2.7-1.38,3.27-4.07,3.24-9-.11-19.92-.8-28.89-1,0,0-11.81,6.32-14.36,8.06,2.19,4.14,5.31,8.82,7.47,13,2.9,5.61,5.72,11.26,8.61,16.87a4.31,4.31,0,0,1-1,5.73c-3.37,3-6.77,6-10.14,9-1.52,1.35-3,2.76-4.81,4.44a14.08,14.08,0,0,0,1.71.26c13.64.09,27.27.26,40.91.21,4.84,0,9.67-.59,14.52-.85a11.16,11.16,0,0,1,3.37.16c2.83.71,3.94,1.34,3.93,4.41-.07,20.09.13,40.18,0,60.26,0,6.51-1,13-1.05,19.51-.09,8.37.34,16.75.41,25.13q.07,9.78-.19,19.54c-.1,3.36-.32,3.57-3.6,3.65-10,.24-19.94.48-29.91.51-11.64,0-23.28-.27-34.92-.22-32.26.13-64.51.38-96.77.56q-50.18.28-100.36.52c-2.85,0-3.15,0-3.39-2.88a122.92,122.92,0,0,1-.34-13.3c.17-7.37.65-14.73.86-22.09.14-5,0-9.95,0-15.21h-2.73q-57.66.31-115.33.65a3.88,3.88,0,0,1-3.44-1.71c-6.47-7.93-13.08-15.75-19.64-23.61a5.66,5.66,0,0,0-.4-.44c-4.18-3.9-5-8-2-13.28,2.59-4.51,4.15-9.62,6.11-14.49A2.08,2.08,0,0,0,83,433.7a7,7,0,0,0-1.43-1.65c-4.2-4-8.44-7.89-12.63-11.86a3.28,3.28,0,0,1-.7-1.52,12.76,12.76,0,0,1,0-1.39,23,23,0,0,1,5.35-18.76A6.22,6.22,0,0,0,74.12,397.6ZM237.27,246.35c0-.1-62.35-4.66-81-6.86-9-1.05-18-2.06-26.92-3.09-3.24-.37-6.49-.64-9.7-1.17-2.09-.34-2.61-1.36-2.13-3.38a6.09,6.09,0,0,1,.25-.83c2.66-7.3,5.46-14.57,8-21.93.7-2.06,1.64-2.47,3.46-1.81.44.16.89.26,1.34.41q33.85,10.94,67.72,21.85c2.87.93,34.91,9,37.8,9.87-.75-.79-58.8-20.1-72.42-25.61-9.42-3.81-18.91-7.47-28.35-11.24-1.62-.65-3.15-1.52-5.07-2.46l15.14-23.61c31.24,19.18,60.23,38.82,90.84,58.27-1.34-1.24-42.91-34.73-63.1-50.79-23.88-19-47.55-37.09-71.45-56.08A22.77,22.77,0,0,0,99,126.23c-.54,1.55-.74,2.3-1.24,3.52-10.66,25.58-21.25,51.18-32.09,76.69-1.77,4.17-2.15,7.81-.24,12,3.31,7.25,6.24,14.67,9.4,22a5.87,5.87,0,0,1-.16,5.32c-3.6,7.34-7.08,14.73-10.69,22.07-7.7,15.69-15.36,31.4-23.22,47-3.57,7.09-3.75,7-.4,14.3,1.8,3.92,3.62,7.83,5.27,11.82.49,1.16,1,1.63,2.25,1.62,5.58-.07,11.17,0,16.76-.05a2.39,2.39,0,0,1,2.32,1.36c3.51,5.51,4.58,11.52,4.29,17.93-.28,6-.35,12-.55,17.95a11.5,11.5,0,0,0,2.7,7.93c1.89,2.31,3.63,4.75,5.46,7.12a4.61,4.61,0,0,1,.06,6c-.47.65-.88,1.34-1.4,1.94-3.16,3.66-4.72,7.83-3.91,12.69a4.47,4.47,0,0,0,1.11,2.31c4.35,4.29,8.76,8.53,13.18,12.75A4.3,4.3,0,0,1,89,435.74c-2.46,6.11-4.77,12.27-7.3,18.34a2.86,2.86,0,0,0,.54,3.5c2.86,3.33,5.61,6.75,8.37,10.16,4,5,8.06,10.05,12.13,15a2.19,2.19,0,0,0,1.49.66c2,.05,4,0,6-.06,31.53-.32,63.05-.68,94.58-.92,6,0,12.09.46,18.14.59,1.83,0,2.46.91,2.55,2.53.15,2.52.45,5,.44,7.56,0,12.38-.13,24.75-.2,37.12,0,2,0,4,0,6.29l257.78-1.9v-121h-2.35q-25.14,0-50.29,0c-2.32,0-4.64.28-7,.33a27.29,27.29,0,0,1-6.14-.2c-3.34-.73-3.93-3.13-1.42-5.42,5.4-4.93,10.9-9.75,16.33-14.64,1.2-1.07,2.28-2.27,3.46-3.45-2.57-2.05-4.78-3.86-7-5.62q-65-50.48-130-101c-9.92-7.71-19.78-15.5-29.69-23.23-1.17-.91-2.49-1.62-3.73-2.42l-.48.53c1.12,1.39,2.27,2.77,3.33,4.2,3.92,5.28,7.86,10.54,12,15.65,14.84,18.28,29.91,36.38,44.85,54.59q28.47,34.71,56.86,69.46c5.89,7.21,11.75,14.45,17.68,21.62a2.91,2.91,0,0,0,2,.88q26.44,0,52.88-.12c3.3,0,4.1.54,4.14,3.82.07,5-.16,10,0,15a11.62,11.62,0,0,1-2.82,8c-13.28,17.06-26.43,34.2-39.62,51.33-.59.75-1.12,1.55-1.89,2.63h2.64l37.51-.3c3,0,3.78.64,3.9,3.69.11,2.66.15,5.32.15,8,0,4.58-.84,5.36-5.39,5.2-.46,0-.93-.07-1.39-.08-4.26-.09-8.52-.42-12.76-.22-14.16.68-28.31,1.1-42.48.53a2.12,2.12,0,0,1-2.15-1.26c-1.48-2.75-3.41-6.66-4.92-9.4q-18.53-33.46-37.11-66.9c-.22-.39-.72-.9-1.1-.91-3-.08-6.08,0-9.37,0v78.39c-1.06.07-1.43.1-2.26.1-4.35,0-8.7.14-13,.54-3.19.29-4,0-4.72-2.85C314.14,488,306,455.88,298,423.76c-12.55-50.49-39.43-159.38-39.68-160.33-.27.27,2.89,30.37,3.56,40.57q.76,11.65,1.71,23.28,1.42,17.91,3,35.8c.59,6.8,1.39,13.59,2,20.39.48,5.56.74,11.14,1.18,16.71.69,8.94,2,17.88,2.07,26.83.26,29.86.1,59.73.1,89.6,0,1.06,0,2.13-.06,3.19-.17,2.67-1.09,3.64-3.7,3.67-5.38.06-10.76,0-16.34,0a39.65,39.65,0,0,1-.64-5.39c.16-5.38.61-10.75.72-16.12.79-40.3-.63-80.61.73-120.92.6-17.67.46-35.37.75-53.05.31-19.42,1.44-65.61,1.31-64.91-.48,2.69-4.43,27.45-5.92,35.77-4.93,27.54-9.53,55.14-14.28,82.72-.43,2.5-.94,3-3.49,2.29-6.17-1.61-12.3-3.37-18.44-5.08-1.65-.46-3.27-1-5.29-1.56,10.72-32.9,42.29-115.49,42.1-115.57-1.48,3-52.65,110.88-53.85,113.3l-26.33-11.41c23-30.67,77.51-103.46,77.06-103-.26.24-17.28,20.93-21.09,25.09q-20.59,22.55-41.25,45c-7.36,8-14.63,16.18-22,24.23-2,2.17-2.22,2.26-4.32.23-5.64-5.45-11.11-11.07-16.68-16.59-1.12-1.11-.8-2,.27-2.77,1.69-1.29,3.4-2.55,5.09-3.84q29.44-22.41,58.9-44.82c8.15-6.2,36.94-27.6,37.83-28.24-.11-.14-10.88,7.56-11,7.41l-99.28,61.22-10.91-21.86c31.19-13.22,87.81-36.63,118.83-49.78-.07-.2-66.21,23.12-84.35,29.22q-16.91,5.67-33.9,11.1c-3.64,1.16-3.3,1.43-4.18-2.54-1.22-5.45-2.22-10.94-3.43-16.39-.34-1.51,0-2.27,1.5-2.56,3.38-.67,6.77-1.36,10.16-2,20.31-3.82,112.55-20.77,111.91-20.69-10.76,1.28-91.93,12-105.86,13.61-5.14.61-10.24,1.58-15.36,2.37-2.73.43-3.37-.17-3.19-2.94.15-2.45.28-4.91.46-7.36.32-4.31.66-8.62,1-12.92.1-1.2.6-1.72,1.94-1.62,4.44.35,8.88.66,13.32.83C158.05,244.94,236.16,246.35,237.27,246.35Zm24.11,14.89-.8.3q22.07,82,44.14,164h53.8a45,45,0,0,0-2-4.56Q309,341.12,261.38,261.24ZM401.31,438.46c1,0,1.74,0,2.53,0l24.93-.56c4.52-.09,9-.2,13.56-.17a4.4,4.4,0,0,1,2.81,1c.94.91.39,6.5-.51,7.62-2.39,2.94-4.79,5.86-7.2,8.79-12.51,15.26-25.07,30.5-37.5,45.84a10.31,10.31,0,0,0-2.34,5.32c-.34,4.35-.11,8.74-.11,13.43,19.46-.4,39,.64,58.62-.78V508.29h-2.49q-20.14,0-40.3,0a9.18,9.18,0,0,1-2.38-.65,16.9,16.9,0,0,1,.78-2.34,11,11,0,0,1,1.29-1.78q7.38-9.54,14.77-19.09,13.16-17,26.32-34.1a9.41,9.41,0,0,0,2.19-6.4c-.18-4.91,0-9.84-.06-14.76,0-.64-.06-1.28-.1-2.06l-54.81.67Zm-154-218.16.81-.31q-24.8-80.91-49.65-162L178.91,66ZM456.76,129c-57.33,35-127.17,76.59-184.33,111.48C332.31,211.9,404.89,176.6,464.89,148ZM85.63,89.46l152,139.76.64-.64L98.27,76.37C94.13,80.67,90,85,85.63,89.46Zm166.13,130,.43,0c0-.67,0-1.35-.12-2q-6.09-47.1-12.19-94.2-6-46.5-11.95-93c-.18-1.41-.66-1.8-2-1.79-5.7.06-11.39,0-17.09,0-.52,0-1,.11-1.81.19Q229.43,124.2,251.76,219.43Zm19.33,29.45c.08.16,8.53.27,8.6.43,58.73,1.27,117.57,2.32,176.36,3.59V233.23c-3.54.2-6.91.3-10.27.6-11.38,1-22.75,2.13-34.14,3.13-8.87.78-17.76,1.41-26.63,2.17-10.79.94-21.57,2-32.37,2.91q-24.13,2-48.29,4c-7.6.61-15.29,1.4-22.89,2C280.79,248.07,271.74,248.59,271.09,248.88Zm88.5,178.77-54.06.85v11.9c.54,0,1,0,1.43,0,4.71-.25,9.41-.61,14.12-.74,3.3-.09,3.81.57,3.81,3.83q0,37.11,0,74.21v2.49h14.68c0-26.37-.85-52.6.4-79h19.61ZM448.3,311.77c.62-6.74,1.22-13,1.7-19.3,0-.4-.88-1.16-1.46-1.29q-10.41-2.34-20.85-4.51Q359.88,272.58,292,258.54c-2.93-.61-22.61-5-22.64-4.85C324.3,271.84,393,293.48,448.3,311.77Zm35.92-48L284.94,251.76c0,.18-14.63-1.1-14.65-.92,66.39,9.33,147.39,20.1,213.93,29.45ZM266.9,221.69l.53.19Q307.57,132.6,347.7,43.31c-.72-.19-.92-.14-1.08,0-8.24,6.26-16.52,12.48-24.69,18.85a8.83,8.83,0,0,0-2.64,3.95c-8.24,24.33-16.35,48.71-24.57,73.06q-13.38,39.59-26.87,79.15C267.47,219.4,267.22,220.55,266.9,221.69Zm1.67,33c-.08.19,141.13,65,198.54,91.88.65-2.73,1.27-5.21,1.84-7.71s1.12-5.16,1.74-8C412.43,309.22,326.85,276.44,268.57,254.73ZM408.94,121.9c-42.8,36.41-93.12,78-135.93,114.46,45.76-31.16,99-67.51,144.87-98.74ZM242.19,223.63l.12-.07L144.52,51.72c-.2,9.36-.11,18.54.22,27.71a9,9,0,0,0,1.78,4.34q41.4,60.86,82.89,121.64C233.59,211.54,238,217.54,242.19,223.63Zm-1.38,1.31.15-.19L143.51,84.4c-3.08,2.68-6.26,5.46-9.46,8.21s-3.3,2.83-.47,6.11q14.34,16.64,28.66,33.29,19.23,22.43,38.41,44.89,16.26,19.08,32.4,38.24C235.74,218.32,238.23,221.67,240.81,224.94ZM273,232.1c.18.18,19.53-20.39,19.71-20.21L419,90.37c-4-3-7.59-5.59-11.15-8.24a1.61,1.61,0,0,0-2.44.2c-1.82,2-3.67,4-5.46,6.06-13.51,15.47-27,31-40.54,46.42Q329.25,169.1,299,203.29C296.65,205.92,275.27,229.41,273,232.1ZM442.76,178c-56.39,22.07-114,43.43-170.09,65.52,58.2-16.9,117.6-34.09,176-51.05C446.76,187.8,444.8,183,442.76,178ZM269.07,520.26V428.43H257c-3.07,0-3.15.08-3.15,3.13v86.56c0,.7.07,1.4.11,2.14ZM360.53,82.79C331,131,301.16,181.32,271.87,229.09c33.32-44,67.19-90.55,100-133.89ZM486.6,198.09c-63,14.22-152.84,33.48-215.21,47.56.27.35,28-4.79,28.15-4.82,15.76-2.41,31.53-4.78,47.28-7.27Q403.91,224.5,461,215.35q11.22-1.78,22.44-3.54c1.86-.29,3.15-1.06,3.15-3.15C486.6,205.28,486.6,201.9,486.6,198.09ZM275.93,32.38l-.52-.22c-.73,1-1.51,2-2.17,3-2.19,3.46-4.37,6.92-6.48,10.43-7.17,11.95-6.57,7.65-6.88,22.07-.47,22-.55,44-.86,66q-.57,41.48-1.23,82.94c0,.74,0,1.47,0,2.21l.39,0Q267,125.59,275.93,32.38Zm-7.72,191.16.73.41L363.25,45.28c-4.2-1.39-8.07-2.68-11.94-3.94-1.35-.44-1.72.55-2.15,1.52q-23.67,53-47.39,106-14.43,32.23-29,64.42C271.23,216.72,269.73,220.14,268.21,223.54Zm-5.48-3.32.39.08q1.89-7.38,3.76-14.74,17.24-68.19,34.44-136.37a8.76,8.76,0,0,0,.29-4C299,54.61,296.34,44,293.67,33.42h-.32Q278,126.81,262.73,220.22ZM241.67,58.12q6.81,80.51,13.6,160.72l.81,0q1.26-80.34,2.53-160.86H243.28C242.88,58,242.48,58,241.67,58.12Zm24.87,198.66C313,292.87,384.7,347.13,431.15,383.22l.47-.45c-.29-.63-.57-1.28-.89-1.9-3-5.91-6.21-11.75-9-17.77a18.7,18.7,0,0,0-7-8.1q-35.74-23.47-71.38-47.11C327.45,297.4,266.67,256.59,266.54,256.78Zm33.57-27.09c.06.14-27.74,11.93-27.68,12.07,1-.36,29.82-12.34,30.79-12.72L436.85,177.8a16.48,16.48,0,0,0,6.92-4.84c5.34-6.28,10.83-12.44,16.25-18.65.35-.4.63-.85,1-1.28l-.31-.34Zm-23-201.84c-5,63.8-11.77,127.25-16.41,190.91l.65.08q15.14-95.38,30.3-191ZM273,231c.16.15,88.11-102.09,128-147.54L400.6,83c-.78.3-1.58.54-2.33.9-6.33,3.09-12.66,6.18-19,9.32a20.79,20.79,0,0,0-7.46,6.17q-20.06,26.58-40.21,53.11C315.55,173.65,273.78,229.83,273,231Zm27.11,11.62c0,.12-29,4-29,4.15,2-.11,33.6-2.56,35.6-2.74,12.24-1.12,24.81-2.85,37.06-3.9s24.65-1.83,37-2.9c22-1.9,43.94-4,65.92-5.87,4.93-.42,9.68-.78,14.06-3.61,6.41-4.15,13.1-7.86,19.67-11.77.58-.35,1.14-.73,1.72-1.09l-.18-.39C421.61,224.13,360.41,232.91,300.11,242.58ZM88.56,95.76c.4,1.24.57,1.9.82,2.52L97.65,119a35.24,35.24,0,0,0,2,4.6c2.74,4.81,60.84,49.47,87.36,70.16q24,18.71,47.83,37.5a20.77,20.77,0,0,0,2.18,1.33l.39-.57Zm56.05-49.28c33.74,61,69.17,122.13,98.65,175.4-26.44-54.49-58.43-117.06-88.72-179.5ZM433.77,348.67c-47.43-25.76-165.5-92.7-165.62-92.51,1.78,1.26,10.83,6.58,12.64,7.78q49.07,32.4,98.15,64.76c8.2,5.4,35,21.28,43.28,26.49C422.87,355.6,432.86,349.47,433.77,348.67ZM284.56,223.2c.12.13-11.67,10.68-11.55,10.81.49-.38,12.92-11.17,13.4-11.57q27.38-23.06,54.73-46.14c8.17-6.91,16.22-14,24.35-20.92q20.6-17.65,41.2-35.29a6.52,6.52,0,0,0,1.74-2.33c2.69-6.58,5.3-13.19,7.92-19.8.18-.45.28-.94.42-1.41l-.41-.3ZM304.27,64.08,264.65,221.22l1,.29q26-78.6,52-157.43Zm-35.7,191.37S352.31,301,378.23,315.17c17.89,9.8,35.83,19.49,53.71,29.3a15.36,15.36,0,0,0,8.15,2.15c3.58-.14,7.17-.05,10.76-.05h8.48l.24-.76C406.14,320.89,268.57,255.45,268.57,255.45Zm1.85-30,.63.37c.66-.93,1.37-1.83,2-2.8q10.67-17.3,21.29-34.61,31.8-51.62,63.58-103.23a12.48,12.48,0,0,0,1.78-4.74c1.17-9.08,2.15-18.17,3.19-27.26a9,9,0,0,0,0-1.16l-.58-.17Zm35.66,32.34c0,.18-36.4-4.74-36.41-4.56s36.23,7,36.35,7c26.19,5.59,52.75,9.41,79,14.95q31.29,6.63,62.63,13.1a8.53,8.53,0,0,0,3.33.16c8.93-1.74,17.85-3.58,26.76-5.4.58-.12,1.14-.3,1.71-.46l-.09-.42ZM250,219.43l.59-.14L205.38,32.36C204.2,39,203,45.21,202,51.48a15.55,15.55,0,0,0,.14,6.59q16.5,55.12,33.24,110.18c2.47,8.19,5,16.37,7.29,24.59C245.22,201.68,247.55,210.56,250,219.43Zm232.76-23.65c-.27-.07-32.3-1.15-38.11.56q-30.41,9-60.88,17.65c-23.05,6.58-111.35,30-111.3,30.2C326.43,231.94,428.15,208.16,482.72,195.78Zm-154.56,6.4c-11.13,7.67-44.36,28.24-55.49,35.9,50.93-31.22,124-75.34,174.89-106.56-3.14.42-6.09,1.38-9.1,2a77.1,77.1,0,0,0-28.7,12.35C382.67,164.82,355.37,183.44,328.16,202.18ZM245.09,221l.14,0a9.38,9.38,0,0,0-.43-1.23c-14.41-29.35-26.81-59.54-40.1-89.36-8.74-19.63-17.24-39.35-25.9-59-.61-1.4-21.53-29.54-21.65-29.45C185,98.69,217.29,164.27,245.09,221Zm-6.15,5.73.47-.32c-.42-.7-8.91-11.29-12.75-15.88q-41.44-49.47-82.88-99c-4.17-5-8.38-9.7-14.18-13.13S119,90.57,113.74,86.59c-1.62-1.22-12.33-10.29-14-11.43C99.5,75.41,195.3,179.14,238.94,226.76Zm14.51-7.43.39.1c-.31-3.4-.61-6.79-.93-10.18-.49-5.15-1-10.29-1.52-15.43-.64-6.13-1.48-12.25-2-18.4-1.17-14.93-2-29.89-3.28-44.81-1.77-21.4-3.75-42.79-5.67-64.18a22.74,22.74,0,0,0-.69-5c-2.09-6.35-4.34-12.65-6.55-19-.78-2.21-1.62-4.4-2.43-6.61l-.55.13Zm86.19,59.43c-.08.21-70.63-24.73-70.7-24.52,41.37,15.41,153.23,56,194.6,71.38a2.25,2.25,0,0,0-1-1.45c-7.92-5-15.43-10.47-24.73-13.39C407.57,301.29,342.21,279.54,339.64,278.76Zm58.88,156.65c1.45-5.45.89-10-3.46-13.5a11.39,11.39,0,0,1-1.57-1.8l-42.86-52.26c-7.59-9.25-85.79-108.22-86.39-108.8C264.13,259.15,374.26,403.16,398.52,435.41Zm-4,80,.59-.3c.62-5.3,0-10.08-2.95-15-10.95-17.91-21.43-36.12-32.06-54.23-1.36-2.33-2-2.63-5.09-1.54Zm76.39-254.74.11-.5-1.84-.57c-4.07-1.22-8.13-2.46-12.2-3.64a13,13,0,0,0-3.43-.72c-7.91-.11-15.82,0-23.73-.2-21.32-.52-42.64-1.15-64-1.72-1.36,0-2.72,0-4.08,0,0,.1-90.91-3.41-90.92-3.31C307.2,252.33,434.48,258.3,470.87,260.65ZM304.41,439.89c-.07-3-.4-9.63-.47-12.63-2.24-6.73-45-165.6-45-165.6q10.47,40.68,21,81.36C288,374.11,296.32,408.82,304.41,439.89Z" transform="translate(-31.74 -13.68)" fill="#fff"/><path d="M524,48.41C524,67.77,509.07,83,490.16,83c-19.69,0-35.38-15.29-35.2-34.47.16-17,13.77-35.67,37.25-34.79C509.84,14.38,525,32.27,524,48.41Zm-63.64.15A28.83,28.83,0,0,0,489,77.7C506.3,77.85,519,65.32,519,48c.07-15.5-13.47-29.18-28.94-29.25C473.57,18.66,460.45,31.8,460.31,48.56Z" transform="translate(-31.74 -13.68)" fill="#fff"/><path d="M475.21,29.93c4.29,0,8.47,0,12.64,0,2.66,0,5.33-.11,8,.14a10.08,10.08,0,0,1,9.36,8.85,10.24,10.24,0,0,1-6.66,11.42l-.76.3,11.16,16.24c-3.74,0-6.76,0-9.77,0-.43,0-.93-.63-1.23-1.07-2.18-3.26-4.4-6.49-6.45-9.83-1.89-3.09-4.43-4.45-8.3-3.59V66.77h-8Zm8,14.71c3.8,0,7.44.11,11.07,0,1.84-.08,2.25-1.58,2.2-3.2s.11-3.81-2.3-3.94c-3.62-.19-7.26-.05-11-.05Z" transform="translate(-31.74 -13.68)" fill="#fff"/></svg>