<svg id="Capa_1" data-name="Capa 1" xmlns="http://www.w3.org/2000/svg" viewBox="0 0 661.68 282.65"><path d="M47.91,66.79C43.15,67.94,31,72,26.62,74.07V99.88c0,7.39-.73,5.71,7,6,41.79,1.36,64.16,7,95.51,26.38a55.49,55.49,0,0,0-6.86-22c-21-15.31-40.73-22.86-66.58-24.62C129,68.06,194.77,138.33,170.36,210.93c-5.91-1.57-18-6.29-29.14,3.11,5.41,15.05,1.09,38.58-19,37.2.72,6.94-3,16.34-13.2,23.88-14.19,8.69-36.15,11.63-47.07,5.1-13.55,2.2-23.45-1.8-35.2-7.57v12.41c6.34,4.17,13.67,6.45,21.21,8.23l5.34,23.95c1.28,2.58,3.55,4,7,4H96.4a7.21,7.21,0,0,0,6.61-4l5.16-24.64a114.16,114.16,0,0,0,14.09-4.71L141,304.37a6.85,6.85,0,0,0,7.62-.84L176,283.2a7.57,7.57,0,0,0,2.9-7.07l-10.25-22.6a118.6,118.6,0,0,0,8.59-12.05l24.93,2.36c2.62,0,4.43-1.71,5.58-5.17l10.3-32.62c.89-3,.53-5.48-1.7-7.31l-21.71-12.33a116.62,116.62,0,0,0-.12-14.84l21.54-12.74c2.35-1.26,2.67-3.94,1.38-7.65l-10.79-32.35c-.66-3.14-2.57-4.69-5.53-4.86l-24.92,2.81a114.17,114.17,0,0,0-8.82-11.94L177.32,82c.73-2.77.09-5.08-3.11-6.94L146.44,55.22c-2.67-1.84-5.24-2.4-7.62-.71L120.4,71.3a116.6,116.6,0,0,0-14.14-4.47l-5.45-24.39c-.88-2.84-3-4.06-6.8-3.84H60c-4,.13-5.82,1.74-6.64,3.89ZM88.06,171.46h3.1a.59.59,0,0,1,.59.6v1.19a.59.59,0,0,1-.59.59h-3.1a.59.59,0,0,1-.59-.59v-1.19a.59.59,0,0,1,.59-.6m8.13-52.06a9.76,9.76,0,1,1-12,6.92,9.77,9.77,0,0,1,12-6.92m2.09,4.1a2.92,2.92,0,1,1-3.58,2.07,2.92,2.92,0,0,1,3.58-2.07m-8.67,42.08a7.07,7.07,0,1,1-7.06,7.07,7.07,7.07,0,0,1,7.06-7.07m0,3.48A3.59,3.59,0,1,1,86,172.65a3.58,3.58,0,0,1,3.59-3.59m18.59-42.82c7.06,3,14.36,6.2,21.09,9.82,0,1.52-.23,3.12-.35,4.66a93.18,93.18,0,0,1-2.67,11.12c-10.41-4.52-28.24-5.19-39.39-2.1A20.3,20.3,0,0,1,76.44,128l2.59.77a14.67,14.67,0,0,0,29.31-.55,14.86,14.86,0,0,0-.14-2M100,172.37c-.12-6.46-5-10.15-11.09-11.29a72.69,72.69,0,0,0-18.32-.94c13-10.59,39.67-10.86,54-5.1-10.79.14-21.1,7-24.62,17.33M27.35,115.59c-1.26-.11-1.51-6.15.21-6.11,20,.49,37,1.72,56.51,7.86a14.4,14.4,0,0,0-4.73,7.89c-17.22-5.89-34.07-8.09-52-9.64m.18,10.64c-1.51-.24-1.52-7.69-.11-7.51,15.61,2,30.35,3.65,45.6,8.15a23.9,23.9,0,0,0-.12,9.3,358.52,358.52,0,0,0-45.37-9.94m0,13.45c-1.27-.38-2.07-9.69.31-9.28,15.6,2.78,30.77,5.16,46.08,9.51,2,5.39,4.64,8.29,7.53,11.6-8.87,3.18-40.77-7.92-53.92-11.83m.33,22.24c-1.26.09-3.87-18.75.86-17.43,14.85,4.14,30.29,8.76,45.21,10.41a39.24,39.24,0,0,0-7.38,5.24q-7.75-.07-15.35.22c-7.78.31-15.57,1-23.34,1.56m.26,13.13c-2.68.07-2.58-9.69-.08-10a291.29,291.29,0,0,1,56.08-1.28,10.44,10.44,0,0,0-2.08,16c-17.38-3.91-36.1-5.25-53.92-4.76m-1.5,19.35,0-13.77a1.85,1.85,0,0,1,1.44-2c9.8-1.24,21.71-.51,31.71.48l.73.07c-10.11,4.14-25.07,13-31.39,17.06a2,2,0,0,1-2.12-.07c-.53-.38-.33-1.12-.33-1.79M103,196.2c-4.23-3.19-8.17-9.07-9.87-13.72A10.47,10.47,0,0,0,99,177.24a25.38,25.38,0,0,0,4,16.4,13.64,13.64,0,0,0,1.12,1.58c1.21,1.41.35,2.11-1.15,1M58.59,272.44c-11.25.72-30.87-.51-35.1-13.33,12.47-28,27.9-54.75,47.31-78.56,1.49.23,3,.48,4.45.75C62.68,211,59.1,240.36,58.59,272.44M28.73,234.5c-3.73,2.4-8.23-27.06,0-33.2,9.07-6.3,17.71-11.72,27.53-17.89l6.38-4c1.38.16,2.76.33,4.14.52-1.18,1.31-3.57,4-4,4.49-11.89,13.08-25.62,36.36-34,50.05m109.36-82c2.83,1-.55,10.33-2.61,9.78-2.21-.29-4.26-.09-5.92,1.33,1.45,3.06,4.92,10.53,6.05,15.51.41,1.85.93,6.28-1.15,7.51-1.44.85-3.92.63-7.27,1l-.49,3.49c.24.48.87.67.84,1a3.43,3.43,0,0,1-3.41,2.36c.31,1.16,1.14,1.67.83,3.47-.19,1.11-2.26,1.28-3.65,2s-.73,1.16-1.55,1.24l-.55-.1c-19.52-3.42-20.21-28.07-5.58-37.51l4.48,1.46c1.25.41,1.13.5-.26,1a14.26,14.26,0,0,1-1.77.41c-1.56.31-1.7.28-.1.84,1.86.65,4.07,1.07,5.42,1.56.7.25.67.48,1.2-.24a2.71,2.71,0,0,0,.16-2.76,4.62,4.62,0,0,0,2.51-.49c1.41-.83.94-1.34-.52-1.26a8.86,8.86,0,0,1-2.85.1l-6.22-1.76a18.1,18.1,0,0,1,12.43-4l2.31-8.64Zm-15.15,53.28c5.93,5.07,14.9,1.35,10,5.06-16.06,12.18-39.69-9-42.86-26.77.71,0,1.42,0,2.11,0,3.3,7.18,4.32,10,11.22,15.24A22.2,22.2,0,0,0,115.9,204c4.24.38,3.63-1.08,7,1.83m39.85-62.59c3.93,10.05,3.51,23.73-5.41,29.24-3.09,1.91-4.31-.2-2.06-2.54,1.75-1.81,1.67-5.62,1.11-7.61-2.33-8.27-17.71-13.64-25-15.88,2.81-10.44,1.34-21-3-30.76,14.62,4.2,28.54,12.78,34.33,27.55M68.6,275.36c-2.3-25-.88-70.57,10-93.42,2.42.48,4.77,1.22,7.27,1.66,0,.4-.24,3.33-.26,3.59-2.18,33.75,11.12,55.14,30.66,65-2.15,22-29.91,26.85-47.63,23.21m68.89-59.1c4.62,7.83-2.36,28.76-12,30.52-25.15-5.38-40.42-39.37-38.11-62.93l1.07.12a29.41,29.41,0,0,0,.77,3.8c4.73,18.5,27.82,38.77,48.25,28.49" transform="translate(-23.49 -38.57)" fill="#fff" fill-rule="evenodd"/><path d="M333.45,170.76V144.15h-8.21v-7h22.55v7h-8.17v26.61Zm222.82-22.21v-9.39c-5.44-4.87-12.88-4.17-17.51,2a21.25,21.25,0,0,0-3.83,12.79c0,5.63,1.72,10.75,5.15,14.25,4.76,4.89,11.24,4.79,16.19.43v-8.53c-3.56,3.92-9.34,6.38-13,1.24a12.47,12.47,0,0,1-2.07-7.48,12.81,12.81,0,0,1,2.09-7.56c3.08-4.36,7.72-3.51,11-.1Zm-75.35-15.08,2.16-2.82-1.52-2-3.64,4.75Zm-88.77,15.08v-9.39c-5.45-4.87-12.89-4.18-17.51,2a21.19,21.19,0,0,0-3.84,12.79c0,5.63,1.73,10.75,5.15,14.25,4.74,4.87,11.22,4.81,16.2.43v-8.53c-3.56,3.92-9.36,6.38-13,1.24a12.47,12.47,0,0,1-2.07-7.48,12.88,12.88,0,0,1,2.08-7.56c3.08-4.36,7.72-3.5,11-.1Zm127.75,6.32v-2.78h-11v6.83h4.89v4.9a9,9,0,0,1-3.33.71c-4.85,0-7.86-4.7-7.86-10.84a12.18,12.18,0,0,1,2.28-7.57,6.92,6.92,0,0,1,9.49-1.92,14,14,0,0,1,3.58,3.46l.65-8.43a14.11,14.11,0,0,0-4-2.45c-4.95-2-10.62-.5-14.33,4.3q-3.94,5.1-3.95,12.9c0,10.34,5.74,17.89,13.68,17.89a18.56,18.56,0,0,0,9.86-3.42Zm5.18,15.89h6.17V137.11h-6.17Zm-73.66-30.85v30.85h16.22v-7.22H457.58V137.11H451.4Zm-55.12,0v30.85H402V152.4l15.08,18.36h1.59V137.11H413v18.55l-15.19-18.55-1.49,0Zm-44.65,0v30.85H367.7v-7.08H357.63V157h5.8v-6.9h-5.8v-6.08h9.93v-6.94H351.64Zm70.21,14c0-9.8,5.6-17.93,13.18-17.93s13.17,8.13,13.17,17.93-5.49,17.93-13.17,17.93-13.18-8.26-13.18-17.93m6.35,0c0,5.2,2.52,10.31,6.83,10.31s6.82-5.08,6.82-10.31-2.48-10.37-6.82-10.37-6.83,5.15-6.83,10.37m39.12,0a23.93,23.93,0,0,1,1-7c2-6.56,6.75-10.93,12.18-10.93,7.75,0,13.17,8.22,13.17,17.93s-5.57,17.93-13.17,17.93-13.17-8.33-13.17-17.93m6.35,0c0,5.2,2.51,10.31,6.82,10.31s6.82-5.08,6.82-10.31-2.47-10.37-6.82-10.37-6.82,5.15-6.82,10.37M571.32,136c5.37,0,10.26,4.35,12.19,10.89a24.11,24.11,0,0,1,1,7c0,9.72-5.49,17.93-13.17,17.93s-13.15-8.29-13.17-17.88,5.48-18,13.17-18m-6.82,17.93c0,5.2,2.51,10.31,6.82,10.31s6.82-5.07,6.82-10.31-2.47-10.37-6.82-10.37-6.82,5.15-6.82,10.37" transform="translate(-23.49 -38.57)" fill="#fff" fill-rule="evenodd"/><path d="M631.77,198.52c-3.48-3.38-8.35-4.23-11.58.1-2.91,3.9-3,11.08,0,15,3.86,5.07,9.94,2.66,13.68-1.24v8.48c-5.19,4.32-12,4.42-17-.43-6.65-6.44-7.25-19.43-1.39-26.88,4.87-6.11,12.67-6.8,18.38-2v9.33ZM561.18,187.3l1.31-1.61-1.59-2L558,187.3Zm40.84,5v30.65h6.47V189.51H602Zm-21.43,13.36-9.74,17.29h7.08l6.24-11.34,6.59,11.34h8L588,205l8.73-15.45h-7l-5.26,9.54-5.59-9.54h-6.26Zm-28.91-13.36v30.65h16.85v-7H558V209.3h6.36v-6.85H558v-6h10.42v-6.89h-16.7ZM522.3,189.5l-5.55,33.44h5.77l2.38-15.49,7.16,15.49h1.65l6.71-15.27,2.3,15.27h6.15l-5.49-33.43h-1.15l-9.16,20.68-9.72-20.68Zm120.42,16.72c0,5.17,2.64,10.26,7.16,10.26s7.16-5,7.16-10.26-2.6-10.29-7.16-10.29-7.16,5.11-7.16,10.29m-6.66,0c0-9.58,5.75-17.8,13.82-17.8s13.82,8.16,13.82,17.8S657.86,224,649.88,224s-13.82-8.25-13.82-17.81" transform="translate(-23.49 -38.57)" fill="#fff" fill-rule="evenodd"/><path d="M456.86,191.82v30.5H464c3.37,0,6.46-.39,9.45-2.5,4.35-3.09,6.65-7.92,6.65-14.13q0-7.74-4.27-12.18c-2.85-3-6.81-4.45-11.83-4.45h-7.17Zm26.88,0v30.5h16.75v-7H490v-6.57h6.84v-6.82H490v-6h10.37v-6.85c-6.24,0-10.38,0-16.6,0Zm-63.4,30.5h17v-7.14H426.79V189.06h-6.44Zm-29.62,0h6.48l1.74-4.84h10.94l1.72,4.84h6.73l-13-33.26h-1.23Zm10.09-10.56,3.59-10.43,3.5,10.43Zm-35.37-19.94v30.5h5.93V204.18l15.65,18h1.76V189.06h-5.94v18.33L367,189.06h-1.54Zm-40.37,0v30.5h6.44V189.06h-6.44ZM317.66,198c-3.47-3.37-8.31-4.21-11.53.1a12.15,12.15,0,0,0-2.17,7.48,11.91,11.91,0,0,0,2.15,7.4c3.86,5.06,9.9,2.63,13.61-1.25v8.44c-5.18,4.33-12,4.38-16.9-.42-3.57-3.47-5.37-8.52-5.37-14.09a20.23,20.23,0,0,1,4-12.64c4.86-6.11,12.64-6.75,18.28-2v9.28Zm-46.34,24.29h6.47l1.75-4.84h10.95l1.7,4.84h6.74l-13.05-33.26h-1.23Zm10.09-10.56L285,201.33l3.49,10.43ZM246,222.32l0-33.26h1.52l15.85,18.33V189.06h5.95v33.26h-1.76L252,204.18v18.14Zm89.2-16.63C335.23,196,341.06,188,349,188c8.1,0,13.75,8.12,13.75,17.72S357,223.4,349,223.4c-7.85,0-13.74-8.09-13.74-17.71m6.62,0c0,5.14,2.63,10.19,7.12,10.19s7.12-5,7.12-10.19-2.57-10.25-7.12-10.25-7.12,5.08-7.12,10.25m121.37,9.49v-19h1.42a8.51,8.51,0,0,1,6.59,2.55,11.39,11.39,0,0,1,0,14,8.63,8.63,0,0,1-6.59,2.52Z" transform="translate(-23.49 -38.57)" fill="#fff" fill-rule="evenodd"/><path d="M676.47,221.66a8.71,8.71,0,1,1-8.7,8.65,8.64,8.64,0,0,1,8.7-8.65m0,1.17a7.52,7.52,0,1,0,7.48,7.52,7.48,7.48,0,0,0-7.48-7.52" transform="translate(-23.49 -38.57)" fill="#fff" fill-rule="evenodd"/><path d="M674.64,231.28v3.79H673v-9.48a.09.09,0,0,1,0,0,29.53,29.53,0,0,1,5.32.16,2.56,2.56,0,0,1,1.59,4,2.67,2.67,0,0,1-1.73.93c.13.05.2.09.28.11a2.48,2.48,0,0,1,1.73,2.35c0,.65,0,1.31,0,2h-1.43c0-.29,0-.57-.07-.84a13.18,13.18,0,0,0-.12-1.41,1.59,1.59,0,0,0-1.52-1.43c-.79-.08-1.59-.08-2.44-.12m0-1.13c.49,0,1,0,1.42,0a8.7,8.7,0,0,0,1.44-.16,1.47,1.47,0,0,0,1.19-1.52,1.39,1.39,0,0,0-1-1.59,11.47,11.47,0,0,0-3-.19Z" transform="translate(-23.49 -38.57)" fill="#fff" fill-rule="evenodd"/></svg>