<svg width="132" height="30" viewBox="0 0 132 30" fill="none" xmlns="http://www.w3.org/2000/svg">
<path d="M16.0608 27.7759C15.6429 27.7759 15.2629 27.6733 14.921 27.4681C14.5867 27.2554 14.3207 26.9742 14.1232 26.6247C13.9256 26.2752 13.8268 25.8839 13.8268 25.4507L13.8382 21.8946C13.8382 21.4767 13.9332 21.0968 14.1232 20.7549C14.3207 20.4053 14.5867 20.128 14.921 19.9228C15.2629 19.7101 15.6429 19.6037 16.0608 19.6037C16.4787 19.6037 16.8548 19.7063 17.1892 19.9114C17.5235 20.1166 17.7894 20.3939 17.987 20.7435C18.1846 21.0854 18.2833 21.4691 18.2833 21.8946V22.4189C18.2833 22.4493 18.2681 22.4645 18.2377 22.4645H16.9612C16.9308 22.4645 16.9156 22.4493 16.9156 22.4189V21.8946C16.9156 21.6439 16.832 21.4273 16.6649 21.245C16.5053 21.0626 16.3039 20.9714 16.0608 20.9714C15.7872 20.9714 15.5783 21.0664 15.4339 21.2564C15.2895 21.4387 15.2173 21.6515 15.2173 21.8946V25.4507C15.2173 25.7319 15.2971 25.9598 15.4567 26.1346C15.6239 26.3094 15.8252 26.3967 16.0608 26.3967C16.3039 26.3967 16.5053 26.3018 16.6649 26.1118C16.832 25.9142 16.9156 25.6939 16.9156 25.4507V24.9264C16.9156 24.896 16.9308 24.8809 16.9612 24.8809H18.2491C18.2795 24.8809 18.2947 24.896 18.2947 24.9264V25.4507C18.2947 25.8839 18.1922 26.2752 17.987 26.6247C17.7894 26.9742 17.5235 27.2554 17.1892 27.4681C16.8548 27.6733 16.4787 27.7759 16.0608 27.7759ZM18.7073 27.6049L20.1206 19.7747C20.1282 19.7443 20.1472 19.7291 20.1776 19.7291H21.8303C21.8606 19.7291 21.8796 19.7443 21.8872 19.7747L23.2436 27.6049C23.2512 27.6429 23.236 27.6619 23.198 27.6619H21.9328C21.9024 27.6619 21.8834 27.6429 21.8758 27.6049L21.7505 26.7729H20.2004L20.075 27.6049C20.0674 27.6429 20.0484 27.6619 20.018 27.6619H18.7529C18.7225 27.6619 18.7073 27.6429 18.7073 27.6049ZM20.4283 25.5533H21.5225L21.0552 22.3506L20.9868 21.9288L20.9412 22.3506L20.4283 25.5533ZM24.0045 27.6619C23.9741 27.6619 23.9589 27.6429 23.9589 27.6049L23.9703 19.7861C23.9703 19.7481 23.9893 19.7291 24.0273 19.7291H25.2924C25.3304 19.7291 25.3494 19.7481 25.3494 19.7861L25.338 26.26H27.6859C27.7239 26.26 27.7429 26.279 27.7429 26.317V27.6049C27.7429 27.6429 27.7239 27.6619 27.6859 27.6619H24.0045ZM28.546 27.6619C28.508 27.6619 28.489 27.6429 28.489 27.6049L28.5004 19.7747C28.5004 19.7443 28.5156 19.7291 28.546 19.7291H29.8225C29.8529 19.7291 29.8681 19.7443 29.8681 19.7747L29.8795 27.6049C29.8795 27.6429 29.8643 27.6619 29.8339 27.6619H28.546ZM30.9391 27.6619C30.9011 27.6619 30.8821 27.6429 30.8821 27.6049L30.9049 19.7747C30.9049 19.7443 30.9201 19.7291 30.9505 19.7291H34.5977C34.6357 19.7291 34.6547 19.7443 34.6547 19.7747V21.0626C34.6547 21.093 34.6395 21.1082 34.6091 21.1082H32.2726V22.8749H34.6091C34.6395 22.8749 34.6547 22.8938 34.6547 22.9318L34.6661 24.2198C34.6661 24.2502 34.6471 24.2654 34.6091 24.2654H32.2726V27.6049C32.2726 27.6429 32.2536 27.6619 32.2156 27.6619H30.9391ZM35.7364 27.6619C35.6984 27.6619 35.6794 27.6429 35.6794 27.6049L35.6908 19.7747C35.6908 19.7443 35.706 19.7291 35.7364 19.7291H37.0129C37.0433 19.7291 37.0585 19.7443 37.0585 19.7747L37.0699 27.6049C37.0699 27.6429 37.0547 27.6619 37.0243 27.6619H35.7364ZM40.1696 27.7759C39.7517 27.7759 39.3718 27.6733 39.0299 27.4681C38.6955 27.2554 38.4296 26.9742 38.232 26.6247C38.0345 26.2752 37.9357 25.8839 37.9357 25.4507L37.9471 21.8946C37.9471 21.4767 38.0421 21.0968 38.232 20.7549C38.4296 20.4053 38.6955 20.128 39.0299 19.9228C39.3718 19.7101 39.7517 19.6037 40.1696 19.6037C40.5875 19.6037 40.9637 19.7063 41.298 19.9114C41.6323 20.1166 41.8983 20.3939 42.0958 20.7435C42.2934 21.0854 42.3922 21.4691 42.3922 21.8946V22.4189C42.3922 22.4493 42.377 22.4645 42.3466 22.4645H41.07C41.0397 22.4645 41.0245 22.4493 41.0245 22.4189V21.8946C41.0245 21.6439 40.9409 21.4273 40.7737 21.245C40.6141 21.0626 40.4128 20.9714 40.1696 20.9714C39.8961 20.9714 39.6871 21.0664 39.5428 21.2564C39.3984 21.4387 39.3262 21.6515 39.3262 21.8946V25.4507C39.3262 25.7319 39.406 25.9598 39.5655 26.1346C39.7327 26.3094 39.9341 26.3967 40.1696 26.3967C40.4128 26.3967 40.6141 26.3018 40.7737 26.1118C40.9409 25.9142 41.0245 25.6939 41.0245 25.4507V24.9264C41.0245 24.896 41.0397 24.8809 41.07 24.8809H42.358C42.3884 24.8809 42.4036 24.896 42.4036 24.9264V25.4507C42.4036 25.8839 42.301 26.2752 42.0958 26.6247C41.8983 26.9742 41.6323 27.2554 41.298 27.4681C40.9637 27.6733 40.5875 27.7759 40.1696 27.7759ZM42.8161 27.6049L44.2294 19.7747C44.237 19.7443 44.256 19.7291 44.2864 19.7291H45.9391C45.9695 19.7291 45.9885 19.7443 45.9961 19.7747L47.3524 27.6049C47.36 27.6429 47.3448 27.6619 47.3068 27.6619H46.0417C46.0113 27.6619 45.9923 27.6429 45.9847 27.6049L45.8593 26.7729H44.3092L44.1839 27.6049C44.1763 27.6429 44.1573 27.6619 44.1269 27.6619H42.8617C42.8313 27.6619 42.8161 27.6429 42.8161 27.6049ZM44.5372 25.5533H45.6314L45.1641 22.3506L45.0957 21.9288L45.0501 22.3506L44.5372 25.5533ZM49.7505 27.6049L51.1638 19.7747C51.1714 19.7443 51.1904 19.7291 51.2208 19.7291H52.8735C52.9039 19.7291 52.9228 19.7443 52.9304 19.7747L54.2868 27.6049C54.2944 27.6429 54.2792 27.6619 54.2412 27.6619H52.976C52.9456 27.6619 52.9266 27.6429 52.919 27.6049L52.7937 26.7729H51.2436L51.1182 27.6049C51.1106 27.6429 51.0916 27.6619 51.0612 27.6619H49.7961C49.7657 27.6619 49.7505 27.6429 49.7505 27.6049ZM51.4715 25.5533H52.5657L52.0984 22.3506L52.03 21.9288L51.9844 22.3506L51.4715 25.5533ZM57.945 27.6619C57.9146 27.6619 57.8994 27.6429 57.8994 27.6049V21.1082H56.4177C56.3797 21.1082 56.3607 21.0892 56.3607 21.0512L56.3721 19.7747C56.3721 19.7443 56.3873 19.7291 56.4177 19.7291H60.7488C60.7868 19.7291 60.8058 19.7443 60.8058 19.7747V21.0512C60.8058 21.0892 60.7906 21.1082 60.7602 21.1082H59.2671L59.2785 27.6049C59.2785 27.6429 59.2633 27.6619 59.2329 27.6619H57.945ZM63.4659 27.7759C63.0632 27.7759 62.6909 27.6733 62.349 27.4681C62.007 27.2554 61.7335 26.9742 61.5283 26.6247C61.3308 26.2752 61.232 25.8914 61.232 25.4735L61.2548 19.7747C61.2548 19.7443 61.27 19.7291 61.3004 19.7291H62.5769C62.6073 19.7291 62.6225 19.7443 62.6225 19.7747V25.4735C62.6225 25.7319 62.7023 25.9522 62.8619 26.1346C63.029 26.3094 63.2304 26.3967 63.4659 26.3967C63.7091 26.3967 63.9105 26.3094 64.07 26.1346C64.2372 25.9522 64.3208 25.7319 64.3208 25.4735V19.7747C64.3208 19.7443 64.336 19.7291 64.3664 19.7291H65.6429C65.6733 19.7291 65.6885 19.7443 65.6885 19.7747L65.7113 25.4735C65.7113 25.899 65.6087 26.2866 65.4036 26.6361C65.206 26.9856 64.9363 27.263 64.5943 27.4681C64.26 27.6733 63.8839 27.7759 63.4659 27.7759ZM68.5489 27.7759C68.1386 27.7759 67.7624 27.6733 67.4205 27.4681C67.0862 27.2554 66.8164 26.978 66.6113 26.6361C66.4137 26.2866 66.3149 25.9028 66.3149 25.4849V24.9606C66.3149 24.9226 66.3339 24.9036 66.3719 24.9036H67.6485C67.6789 24.9036 67.6941 24.9226 67.6941 24.9606V25.4849C67.6941 25.7357 67.7776 25.9522 67.9448 26.1346C68.112 26.3094 68.3133 26.3967 68.5489 26.3967C68.7844 26.3967 68.9858 26.3056 69.153 26.1232C69.3201 25.9408 69.4037 25.7281 69.4037 25.4849C69.4037 25.2038 69.2213 24.9606 68.8566 24.7555C68.735 24.6871 68.5451 24.5807 68.2867 24.4363C68.0284 24.292 67.7852 24.1552 67.5573 24.026C67.1394 23.7829 66.8278 23.4789 66.6227 23.1142C66.4251 22.7419 66.3263 22.324 66.3263 21.8605C66.3263 21.4349 66.4289 21.055 66.6341 20.7207C66.8392 20.3788 67.109 20.109 67.4433 19.9114C67.7852 19.7139 68.1538 19.6151 68.5489 19.6151C68.9516 19.6151 69.3201 19.7177 69.6545 19.9228C69.9964 20.1204 70.2661 20.3901 70.4637 20.7321C70.6689 21.0664 70.7714 21.4425 70.7714 21.8605V22.7951C70.7714 22.8255 70.7562 22.8407 70.7258 22.8407H69.4493C69.4189 22.8407 69.4037 22.8255 69.4037 22.7951L69.3923 21.8605C69.3923 21.5945 69.3087 21.378 69.1416 21.2108C68.9744 21.0436 68.7768 20.96 68.5489 20.96C68.3133 20.96 68.112 21.0512 67.9448 21.2336C67.7776 21.4083 67.6941 21.6173 67.6941 21.8605C67.6941 22.1112 67.7472 22.3202 67.8536 22.4873C67.96 22.6545 68.1538 22.8141 68.4349 22.966C68.4729 22.9888 68.5451 23.0306 68.6515 23.0914C68.7654 23.1446 68.887 23.2092 69.0162 23.2852C69.1454 23.3536 69.2593 23.4143 69.3581 23.4675C69.4645 23.5207 69.5291 23.5549 69.5519 23.5701C69.9318 23.7829 70.2319 24.045 70.4523 24.3566C70.6727 24.6605 70.7828 25.0366 70.7828 25.4849C70.7828 25.918 70.6803 26.3094 70.4751 26.6589C70.2775 27.0008 70.0078 27.2744 69.6659 27.4795C69.3315 27.6771 68.9592 27.7759 68.5489 27.7759ZM78.3999 27.6619C78.3619 27.6619 78.3429 27.6429 78.3429 27.6049L78.3657 19.7747C78.3657 19.7443 78.3809 19.7291 78.4113 19.7291H80.5997C81.2987 19.7291 81.8496 19.9418 82.2523 20.3674C82.6626 20.7929 82.8678 21.3704 82.8678 22.0998C82.8678 22.6393 82.7614 23.1066 82.5487 23.5017C82.3359 23.8968 82.0586 24.2008 81.7166 24.4135C81.3747 24.6263 81.0024 24.7327 80.5997 24.7327H79.7334V27.6049C79.7334 27.6429 79.7144 27.6619 79.6764 27.6619H78.3999ZM79.7334 23.3536H80.5997C80.8428 23.3536 81.0518 23.2396 81.2265 23.0116C81.4089 22.7761 81.5001 22.4721 81.5001 22.0998C81.5001 21.8035 81.4203 21.5603 81.2607 21.3704C81.1012 21.1804 80.8808 21.0854 80.5997 21.0854L79.7334 21.0968V23.3536ZM83.5976 27.6619C83.5672 27.6619 83.552 27.6429 83.552 27.6049L83.5748 19.7747C83.5748 19.7443 83.59 19.7291 83.6204 19.7291H85.9227C86.3331 19.7291 86.7092 19.8317 87.0511 20.0368C87.4007 20.2344 87.678 20.5041 87.8832 20.8461C88.0883 21.1804 88.1909 21.5603 88.1909 21.9858C88.1909 22.267 88.1491 22.5215 88.0655 22.7495C87.9819 22.9698 87.8832 23.1598 87.7692 23.3194C87.6552 23.4713 87.5526 23.5853 87.4614 23.6613C87.8718 24.1172 88.0769 24.6529 88.0769 25.2684L88.0883 27.6049C88.0883 27.6429 88.0693 27.6619 88.0313 27.6619H86.7434C86.713 27.6619 86.6978 27.6505 86.6978 27.6277V25.2684C86.6978 24.9948 86.599 24.7593 86.4015 24.5617C86.2115 24.3566 85.9759 24.254 85.6948 24.254H84.9425L84.9311 27.6049C84.9311 27.6429 84.916 27.6619 84.8856 27.6619H83.5976ZM84.9425 22.8863H85.9227C86.1583 22.8863 86.3673 22.7989 86.5496 22.6241C86.732 22.4493 86.8232 22.2366 86.8232 21.9858C86.8232 21.7427 86.732 21.5337 86.5496 21.359C86.3749 21.1842 86.1659 21.0968 85.9227 21.0968H84.9425V22.8863ZM91.1035 27.7759C90.6931 27.7759 90.317 27.6733 89.9751 27.4681C89.6408 27.2554 89.371 26.978 89.1658 26.6361C88.9607 26.2866 88.8581 25.9028 88.8581 25.4849L88.8695 21.8719C88.8695 21.4539 88.9683 21.074 89.1658 20.7321C89.371 20.3901 89.6445 20.1166 89.9865 19.9114C90.3284 19.7063 90.7007 19.6037 91.1035 19.6037C91.5138 19.6037 91.8861 19.7063 92.2204 19.9114C92.5548 20.1166 92.8207 20.3901 93.0183 20.7321C93.2234 21.074 93.326 21.4539 93.326 21.8719L93.3374 25.4849C93.3374 25.9028 93.2348 26.2866 93.0297 26.6361C92.8321 26.978 92.5624 27.2554 92.2204 27.4681C91.8861 27.6733 91.5138 27.7759 91.1035 27.7759ZM91.1035 26.3967C91.3314 26.3967 91.529 26.3056 91.6961 26.1232C91.8709 25.9332 91.9583 25.7205 91.9583 25.4849L91.9469 21.8719C91.9469 21.6211 91.8671 21.4083 91.7075 21.2336C91.548 21.0588 91.3466 20.9714 91.1035 20.9714C90.8679 20.9714 90.6665 21.0588 90.4994 21.2336C90.3322 21.4007 90.2486 21.6135 90.2486 21.8719V25.4849C90.2486 25.7357 90.3322 25.9522 90.4994 26.1346C90.6665 26.3094 90.8679 26.3967 91.1035 26.3967ZM94.261 27.6619C94.223 27.6619 94.204 27.6429 94.204 27.6049L94.2268 19.7747C94.2268 19.7443 94.242 19.7291 94.2724 19.7291H97.9197C97.9576 19.7291 97.9766 19.7443 97.9766 19.7747V21.0626C97.9766 21.093 97.9614 21.1082 97.931 21.1082H95.5945V22.8749H97.931C97.9614 22.8749 97.9766 22.8938 97.9766 22.9318L97.988 24.2198C97.988 24.2502 97.969 24.2654 97.931 24.2654H95.5945V27.6049C95.5945 27.6429 95.5755 27.6619 95.5375 27.6619H94.261ZM99.1582 27.6619C99.1278 27.6619 99.1126 27.6429 99.1126 27.6049L99.124 19.7747C99.124 19.7443 99.1392 19.7291 99.1696 19.7291H102.828C102.859 19.7291 102.874 19.7481 102.874 19.7861V21.0626C102.874 21.093 102.859 21.1082 102.828 21.1082H100.492V22.8863H102.828C102.859 22.8863 102.874 22.9014 102.874 22.9318L102.885 24.2198C102.885 24.2502 102.87 24.2654 102.84 24.2654H100.492V26.26H102.84C102.87 26.26 102.885 26.279 102.885 26.317V27.6163C102.885 27.6467 102.87 27.6619 102.84 27.6619H99.1582ZM105.77 27.7759C105.359 27.7759 104.983 27.6733 104.641 27.4681C104.307 27.2554 104.037 26.978 103.832 26.6361C103.634 26.2866 103.536 25.9028 103.536 25.4849V24.9606C103.536 24.9226 103.555 24.9036 103.593 24.9036H104.869C104.9 24.9036 104.915 24.9226 104.915 24.9606V25.4849C104.915 25.7357 104.998 25.9522 105.165 26.1346C105.333 26.3094 105.534 26.3967 105.77 26.3967C106.005 26.3967 106.206 26.3056 106.374 26.1232C106.541 25.9408 106.624 25.7281 106.624 25.4849C106.624 25.2038 106.442 24.9606 106.077 24.7555C105.956 24.6871 105.766 24.5807 105.507 24.4363C105.249 24.292 105.006 24.1552 104.778 24.026C104.36 23.7829 104.049 23.4789 103.843 23.1142C103.646 22.7419 103.547 22.324 103.547 21.8605C103.547 21.4349 103.65 21.055 103.855 20.7207C104.06 20.3788 104.33 20.109 104.664 19.9114C105.006 19.7139 105.374 19.6151 105.77 19.6151C106.172 19.6151 106.541 19.7177 106.875 19.9228C107.217 20.1204 107.487 20.3901 107.684 20.7321C107.89 21.0664 107.992 21.4425 107.992 21.8605V22.7951C107.992 22.8255 107.977 22.8407 107.947 22.8407H106.67C106.64 22.8407 106.624 22.8255 106.624 22.7951L106.613 21.8605C106.613 21.5945 106.529 21.378 106.362 21.2108C106.195 21.0436 105.998 20.96 105.77 20.96C105.534 20.96 105.333 21.0512 105.165 21.2336C104.998 21.4083 104.915 21.6173 104.915 21.8605C104.915 22.1112 104.968 22.3202 105.074 22.4873C105.181 22.6545 105.374 22.8141 105.656 22.966C105.694 22.9888 105.766 23.0306 105.872 23.0914C105.986 23.1446 106.108 23.2092 106.237 23.2852C106.366 23.3536 106.48 23.4143 106.579 23.4675C106.685 23.5207 106.75 23.5549 106.773 23.5701C107.152 23.7829 107.453 24.045 107.673 24.3566C107.893 24.6605 108.004 25.0366 108.004 25.4849C108.004 25.918 107.901 26.3094 107.696 26.6589C107.498 27.0008 107.228 27.2744 106.887 27.4795C106.552 27.6771 106.18 27.7759 105.77 27.7759ZM110.905 27.7759C110.494 27.7759 110.118 27.6733 109.776 27.4681C109.442 27.2554 109.172 26.978 108.967 26.6361C108.762 26.2866 108.659 25.9028 108.659 25.4849L108.671 21.8719C108.671 21.4539 108.77 21.074 108.967 20.7321C109.172 20.3901 109.446 20.1166 109.788 19.9114C110.13 19.7063 110.502 19.6037 110.905 19.6037C111.315 19.6037 111.687 19.7063 112.022 19.9114C112.356 20.1166 112.622 20.3901 112.82 20.7321C113.025 21.074 113.127 21.4539 113.127 21.8719L113.139 25.4849C113.139 25.9028 113.036 26.2866 112.831 26.6361C112.633 26.978 112.364 27.2554 112.022 27.4681C111.687 27.6733 111.315 27.7759 110.905 27.7759ZM110.905 26.3967C111.133 26.3967 111.33 26.3056 111.497 26.1232C111.672 25.9332 111.76 25.7205 111.76 25.4849L111.748 21.8719C111.748 21.6211 111.668 21.4083 111.509 21.2336C111.349 21.0588 111.148 20.9714 110.905 20.9714C110.669 20.9714 110.468 21.0588 110.301 21.2336C110.134 21.4007 110.05 21.6135 110.05 21.8719V25.4849C110.05 25.7357 110.134 25.9522 110.301 26.1346C110.468 26.3094 110.669 26.3967 110.905 26.3967ZM114.051 27.6619C114.021 27.6619 114.005 27.6429 114.005 27.6049L114.028 19.7747C114.028 19.7443 114.043 19.7291 114.074 19.7291H116.376C116.786 19.7291 117.162 19.8317 117.504 20.0368C117.854 20.2344 118.131 20.5041 118.336 20.8461C118.542 21.1804 118.644 21.5603 118.644 21.9858C118.644 22.267 118.602 22.5215 118.519 22.7495C118.435 22.9698 118.336 23.1598 118.222 23.3194C118.108 23.4713 118.006 23.5853 117.915 23.6613C118.325 24.1172 118.53 24.6529 118.53 25.2684L118.542 27.6049C118.542 27.6429 118.523 27.6619 118.485 27.6619H117.197C117.166 27.6619 117.151 27.6505 117.151 27.6277V25.2684C117.151 24.9948 117.052 24.7593 116.855 24.5617C116.665 24.3566 116.429 24.254 116.148 24.254H115.396L115.384 27.6049C115.384 27.6429 115.369 27.6619 115.339 27.6619H114.051ZM115.396 22.8863H116.376C116.612 22.8863 116.821 22.7989 117.003 22.6241C117.185 22.4493 117.276 22.2366 117.276 21.9858C117.276 21.7427 117.185 21.5337 117.003 21.359C116.828 21.1842 116.619 21.0968 116.376 21.0968H115.396V22.8863ZM119.549 27.6619C119.519 27.6619 119.504 27.6429 119.504 27.6049L119.515 19.7747C119.515 19.7443 119.53 19.7291 119.561 19.7291H123.219C123.25 19.7291 123.265 19.7481 123.265 19.7861V21.0626C123.265 21.093 123.25 21.1082 123.219 21.1082H120.883V22.8863H123.219C123.25 22.8863 123.265 22.9014 123.265 22.9318L123.276 24.2198C123.276 24.2502 123.261 24.2654 123.231 24.2654H120.883V26.26H123.231C123.261 26.26 123.276 26.279 123.276 26.317V27.6163C123.276 27.6467 123.261 27.6619 123.231 27.6619H119.549ZM126.161 27.7759C125.75 27.7759 125.374 27.6733 125.032 27.4681C124.698 27.2554 124.428 26.978 124.223 26.6361C124.026 26.2866 123.927 25.9028 123.927 25.4849V24.9606C123.927 24.9226 123.946 24.9036 123.984 24.9036H125.26C125.291 24.9036 125.306 24.9226 125.306 24.9606V25.4849C125.306 25.7357 125.39 25.9522 125.557 26.1346C125.724 26.3094 125.925 26.3967 126.161 26.3967C126.396 26.3967 126.598 26.3056 126.765 26.1232C126.932 25.9408 127.016 25.7281 127.016 25.4849C127.016 25.2038 126.833 24.9606 126.469 24.7555C126.347 24.6871 126.157 24.5807 125.899 24.4363C125.64 24.292 125.397 24.1552 125.169 24.026C124.751 23.7829 124.44 23.4789 124.235 23.1142C124.037 22.7419 123.938 22.324 123.938 21.8605C123.938 21.4349 124.041 21.055 124.246 20.7207C124.451 20.3788 124.721 20.109 125.055 19.9114C125.397 19.7139 125.766 19.6151 126.161 19.6151C126.564 19.6151 126.932 19.7177 127.266 19.9228C127.608 20.1204 127.878 20.3901 128.076 20.7321C128.281 21.0664 128.383 21.4425 128.383 21.8605V22.7951C128.383 22.8255 128.368 22.8407 128.338 22.8407H127.061C127.031 22.8407 127.016 22.8255 127.016 22.7951L127.004 21.8605C127.004 21.5945 126.921 21.378 126.753 21.2108C126.586 21.0436 126.389 20.96 126.161 20.96C125.925 20.96 125.724 21.0512 125.557 21.2336C125.39 21.4083 125.306 21.6173 125.306 21.8605C125.306 22.1112 125.359 22.3202 125.466 22.4873C125.572 22.6545 125.766 22.8141 126.047 22.966C126.085 22.9888 126.157 23.0306 126.263 23.0914C126.377 23.1446 126.499 23.2092 126.628 23.2852C126.757 23.3536 126.871 23.4143 126.97 23.4675C127.076 23.5207 127.141 23.5549 127.164 23.5701C127.544 23.7829 127.844 24.045 128.064 24.3566C128.285 24.6605 128.395 25.0366 128.395 25.4849C128.395 25.918 128.292 26.3094 128.087 26.6589C127.889 27.0008 127.62 27.2744 127.278 27.4795C126.943 27.6771 126.571 27.7759 126.161 27.7759Z" fill="white"/>
<path d="M0.110898 17.7663C0.0959552 17.7683 0.0806831 17.7672 0.0663174 17.7629C0.0519517 17.7586 0.0388959 17.7513 0.0282064 17.7416C0.017517 17.7319 0.00949414 17.72 0.00478716 17.7069C8.01749e-05 17.6939 -0.00117863 17.68 0.00111239 17.6664L0.055042 4.08797C0.0534521 4.07727 0.0545985 4.06639 0.058392 4.05616C0.0621855 4.04594 0.0685235 4.03665 0.0769121 4.02901C0.0853007 4.02138 0.0955131 4.01562 0.106753 4.01216C0.117994 4.00871 0.129958 4.00767 0.141715 4.00912H4.30393C5.63677 4.00912 6.69032 4.37826 7.4646 5.11656C8.23887 5.85485 8.62408 6.85599 8.62023 8.11996C8.6431 8.96414 8.43389 9.80015 8.0116 10.5521C7.64496 11.1961 7.09737 11.7403 6.42452 12.1292C5.79049 12.4932 5.05557 12.6853 4.30586 12.6829H2.6533V17.6629C2.65559 17.6765 2.65433 17.6904 2.64962 17.7034C2.64492 17.7165 2.63689 17.7284 2.6262 17.7381C2.61551 17.7478 2.60246 17.7551 2.58809 17.7594C2.57373 17.7637 2.55845 17.7648 2.54351 17.7628L0.110898 17.7663ZM2.6533 10.2945H4.30393C4.54325 10.2891 4.77764 10.2316 4.98744 10.1267C5.19723 10.0218 5.37631 9.87264 5.50964 9.69176C5.86961 9.23313 6.0494 8.67762 6.02005 8.11471C6.04114 7.6561 5.87899 7.20606 5.56357 6.84781C5.40906 6.68336 5.21518 6.55332 4.99682 6.46766C4.77847 6.382 4.54144 6.343 4.30393 6.35367L2.6533 6.37469V10.2945Z" fill="white"/>
<path d="M10.1919 17.7663C10.1322 17.7663 10.1033 17.733 10.1033 17.6664L10.1476 4.08797C10.146 4.07727 10.1472 4.06639 10.151 4.05616C10.1548 4.04594 10.1611 4.03665 10.1695 4.02901C10.1779 4.02138 10.1881 4.01562 10.1993 4.01216C10.2106 4.00871 10.2225 4.00767 10.2343 4.00912H14.6238C15.383 4.00438 16.1295 4.18598 16.7848 4.5348C17.4322 4.87289 17.9744 5.3553 18.3604 5.93662C18.7525 6.53651 18.9526 7.22413 18.9382 7.92196C18.9462 8.36953 18.8653 8.81475 18.6993 9.23617C18.5618 9.58752 18.3719 9.92005 18.135 10.2245C17.9697 10.4458 17.7757 10.6482 17.5572 10.8272C18.3288 11.5846 18.7514 12.5825 18.7379 13.6151L18.761 17.6664C18.7633 17.68 18.762 17.6939 18.7573 17.7069C18.7526 17.72 18.7446 17.7319 18.7339 17.7416C18.7232 17.7513 18.7101 17.7586 18.6958 17.7629C18.6814 17.7672 18.6661 17.7683 18.6512 17.7663H16.1878C16.13 17.7663 16.1011 17.7452 16.1011 17.7067V13.6151C16.1037 13.386 16.056 13.1587 15.9607 12.9465C15.8655 12.7344 15.7246 12.5417 15.5464 12.3798C15.3732 12.2105 15.1628 12.0762 14.9288 11.9856C14.6949 11.8951 14.4427 11.8503 14.1885 11.8541H12.7555L12.7324 17.6646C12.7324 17.7312 12.7035 17.7645 12.6457 17.7645L10.1919 17.7663ZM12.7555 9.47623H14.6238C14.846 9.47648 15.066 9.43648 15.271 9.35856C15.4761 9.28064 15.662 9.16636 15.818 9.02239C15.9819 8.88155 16.1126 8.71192 16.2024 8.52376C16.2921 8.33559 16.3389 8.13282 16.34 7.92771C16.3411 7.7226 16.2964 7.51943 16.2087 7.33049C16.1209 7.14156 15.9919 6.97079 15.8295 6.82853C15.6724 6.68305 15.4846 6.56788 15.2775 6.4899C15.0703 6.41192 14.848 6.37274 14.6238 6.37469H12.7555V9.47623Z" fill="white"/>
<path d="M35.3654 12.7385C36.4878 9.36706 34.3935 5.80624 30.6877 4.78515C26.982 3.76405 23.068 5.66935 21.9457 9.04074C20.8233 12.4121 22.9176 15.973 26.6233 16.9941C30.3291 18.0152 34.243 16.1099 35.3654 12.7385Z" stroke="white" stroke-width="1.70649" stroke-miterlimit="10"/>
<path d="M31.3998 12.7074C32.6252 12.7074 33.6186 11.8036 33.6186 10.6888C33.6186 9.57394 32.6252 8.67017 31.3998 8.67017C30.1744 8.67017 29.181 9.57394 29.181 10.6888C29.181 11.8036 30.1744 12.7074 31.3998 12.7074Z" stroke="white" stroke-width="0.568188" stroke-miterlimit="10"/>
<path d="M26.0993 12.7074C27.3247 12.7074 28.3181 11.8036 28.3181 10.6888C28.3181 9.57394 27.3247 8.67017 26.0993 8.67017C24.8738 8.67017 23.8804 9.57394 23.8804 10.6888C23.8804 11.8036 24.8738 12.7074 26.0993 12.7074Z" stroke="white" stroke-width="0.568188" stroke-miterlimit="10"/>
<path d="M22.3743 8.89797C22.8834 9.30477 23.5034 9.57954 24.1694 9.6935C25.8219 9.95284 27.6151 9.0802 28.7611 7.49965C29.8281 9.43942 31.6829 10.7046 33.6205 10.6888C34.3219 10.6784 35.01 10.513 35.6256 10.2069C35.3161 8.90396 34.5678 7.72121 33.4848 6.82328C32.4019 5.92535 31.0382 5.35694 29.5835 5.19715C28.9884 5.12706 27.0103 4.92029 25.1208 5.98042C24.1601 6.54329 23.3589 7.30457 22.7826 8.20231C22.6326 8.42722 22.4963 8.65945 22.3743 8.89797Z" fill="white"/>
<path d="M28.2757 10.2875H29.179" stroke="white" stroke-width="0.568188" stroke-miterlimit="10"/>
<path d="M33.7958 10.2875L34.9919 9.79514" stroke="white" stroke-width="0.568188" stroke-miterlimit="10"/>
<path d="M23.8804 10.2262L22.2394 9.19586" stroke="white" stroke-width="0.568188" stroke-miterlimit="10"/>
<path d="M32.3108 4.21938C32.4794 3.86679 32.5413 3.47959 32.4899 3.09793C32.2839 1.72414 30.4368 0.644734 28.7284 0.653495C27.0199 0.662257 25.2287 1.71538 24.9668 3.10669C24.9021 3.47129 24.9358 3.84474 25.065 4.19485C25.6543 3.89685 26.2836 3.6695 26.9371 3.51847C27.5226 3.38247 28.1241 3.31186 28.7284 3.3082C29.3329 3.30722 29.9351 3.37791 30.5196 3.51847C31.1507 3.6723 31.754 3.90838 32.3108 4.21938Z" fill="white"/>
<path d="M38.1737 18.0624C38.1589 18.0644 38.1438 18.0633 38.1296 18.0591C38.1154 18.0549 38.1025 18.0478 38.0919 18.0382C38.0812 18.0287 38.0731 18.0171 38.0683 18.0043C38.0634 17.9914 38.0619 17.9777 38.0639 17.9643L38.1082 4.3841C38.1066 4.3734 38.1077 4.36252 38.1115 4.35229C38.1153 4.34206 38.1217 4.33277 38.1301 4.32514C38.1384 4.31751 38.1487 4.31174 38.1599 4.30829C38.1711 4.30484 38.1831 4.3038 38.1949 4.30524H45.1479C45.2192 4.30524 45.2558 4.33153 45.2558 4.3841V6.6165C45.2574 6.6272 45.2562 6.63808 45.2524 6.64831C45.2486 6.65853 45.2423 6.66782 45.2339 6.67546C45.2255 6.68309 45.2153 6.68885 45.2041 6.6923C45.1928 6.69576 45.1809 6.6968 45.1691 6.69535H40.7161V9.75834H45.1691C45.2269 9.75834 45.2558 9.79163 45.2558 9.85822L45.277 12.0906C45.277 12.1449 45.2404 12.1712 45.1691 12.1712H40.7161V17.9625C40.718 17.976 40.7165 17.9897 40.7117 18.0025C40.7068 18.0153 40.6987 18.027 40.6881 18.0365C40.6774 18.046 40.6645 18.0531 40.6503 18.0573C40.6361 18.0615 40.621 18.0627 40.6063 18.0606L38.1737 18.0624Z" fill="white"/>
<path d="M47.5151 18.0624C47.4574 18.0624 47.4285 18.0291 47.4285 17.9643L47.4497 4.3841C47.4481 4.3734 47.4492 4.36252 47.453 4.35229C47.4568 4.34206 47.4631 4.33277 47.4715 4.32514C47.4799 4.31751 47.4901 4.31174 47.5014 4.30829C47.5126 4.30484 47.5246 4.3038 47.5363 4.30524H54.5106C54.5684 4.30524 54.5973 4.33854 54.5973 4.40512V6.6165C54.5989 6.6272 54.5977 6.63808 54.5939 6.64831C54.5901 6.65853 54.5838 6.66782 54.5754 6.67546C54.567 6.68309 54.5568 6.68885 54.5456 6.69231C54.5343 6.69576 54.5223 6.6968 54.5106 6.69535H50.0575V9.77937H54.5106C54.5223 9.77792 54.5343 9.77896 54.5456 9.78241C54.5568 9.78586 54.567 9.79163 54.5754 9.79926C54.5838 9.80689 54.5901 9.81618 54.5939 9.82641C54.5977 9.83664 54.5989 9.84752 54.5973 9.85822L54.6185 12.0906C54.6204 12.1014 54.6195 12.1125 54.6158 12.123C54.6122 12.1334 54.6059 12.143 54.5975 12.1508C54.589 12.1587 54.5787 12.1646 54.5673 12.1681C54.5559 12.1717 54.5437 12.1727 54.5318 12.1712H50.0575V15.6302H54.5318C54.5896 15.6302 54.6185 15.6618 54.6185 15.7284V17.9818C54.62 17.9925 54.6189 18.0034 54.6151 18.0136C54.6113 18.0238 54.605 18.0331 54.5966 18.0407C54.5882 18.0484 54.578 18.0541 54.5667 18.0576C54.5555 18.061 54.5435 18.0621 54.5318 18.0606L47.5151 18.0624Z" fill="white"/>
<path d="M60.1154 18.2587C59.3601 18.2647 58.6183 18.0764 57.9756 17.7154C57.3377 17.3585 56.8081 16.8621 56.4347 16.2716C56.0495 15.6691 55.8499 14.9832 55.8569 14.2862V13.3768C55.8546 13.3632 55.8559 13.3493 55.8606 13.3362C55.8653 13.3232 55.8733 13.3113 55.884 13.3016C55.8947 13.2918 55.9077 13.2845 55.9221 13.2803C55.9365 13.276 55.9517 13.2748 55.9667 13.2769H58.3993C58.4571 13.2769 58.486 13.3102 58.486 13.3768V14.2862C58.4776 14.701 58.6492 15.102 58.9636 15.4024C59.109 15.5509 59.2875 15.6696 59.4872 15.7505C59.6869 15.8314 59.9033 15.8728 60.1219 15.8718C60.3405 15.8708 60.5564 15.8275 60.7551 15.7448C60.9539 15.662 61.1311 15.5417 61.2749 15.3919C61.5854 15.0935 61.7566 14.6971 61.7526 14.2862C61.7526 13.7968 61.4052 13.375 60.7106 13.0211L59.6243 12.4674C59.1261 12.2174 58.6587 11.9796 58.2221 11.7542C57.4812 11.383 56.8678 10.8323 56.4501 10.1631C56.0589 9.49802 55.86 8.75332 55.8723 7.99905C55.8581 7.3007 56.0582 6.61259 56.4501 6.01197C56.8285 5.43189 57.3636 4.94936 58.0044 4.61014C58.645 4.27238 59.3725 4.09523 60.1129 4.09677C60.8532 4.09831 61.5798 4.27848 62.2187 4.61891C62.8529 4.96176 63.3827 5.4437 63.7595 6.02073C64.1464 6.6162 64.3463 7.29686 64.3373 7.98854V9.6094C64.3389 9.62009 64.3378 9.63098 64.334 9.64121C64.3302 9.65143 64.3238 9.66072 64.3155 9.66835C64.3071 9.67599 64.2969 9.68175 64.2856 9.6852C64.2744 9.68865 64.2624 9.6897 64.2507 9.68825H61.8315C61.8198 9.6897 61.8078 9.68865 61.7966 9.6852C61.7853 9.68175 61.7751 9.67599 61.7667 9.66835C61.7583 9.66072 61.752 9.65143 61.7482 9.64121C61.7444 9.63098 61.7433 9.62009 61.7449 9.6094L61.7237 7.98854C61.7326 7.78104 61.6948 7.57407 61.6127 7.38032C61.5306 7.18657 61.4058 7.01013 61.246 6.86182C61.1003 6.72278 60.9248 6.61246 60.7303 6.53771C60.5358 6.46295 60.3265 6.42536 60.1154 6.42726C59.8975 6.42484 59.6815 6.46505 59.4821 6.54517C59.2827 6.62528 59.1046 6.74343 58.9598 6.89161C58.6479 7.18572 58.4762 7.57992 58.4821 7.98854C58.4669 8.36973 58.5726 8.74686 58.7864 9.07495C59.0748 9.43057 59.4552 9.71588 59.8939 9.90553C59.9671 9.94408 60.1077 10.0142 60.3176 10.1123C60.5276 10.2104 60.7568 10.3243 61.0033 10.4487C61.2499 10.5732 61.4694 10.6835 61.6659 10.7747C61.8623 10.8658 61.9798 10.9271 62.0241 10.9499C62.6993 11.2795 63.2855 11.7416 63.7402 12.3027C64.1748 12.881 64.3955 13.5703 64.3701 14.2705C64.3883 14.9841 64.1939 15.6888 63.8077 16.3101C63.4379 16.8976 62.907 17.3878 62.2668 17.733C61.6165 18.085 60.8721 18.2669 60.1154 18.2587Z" fill="white"/>
<path d="M74.1737 18.1693C78.2957 18.1693 81.6372 15.1293 81.6372 11.3792C81.6372 7.62914 78.2957 4.58911 74.1737 4.58911C70.0517 4.58911 66.7102 7.62914 66.7102 11.3792C66.7102 15.1293 70.0517 18.1693 74.1737 18.1693Z" stroke="white" stroke-width="1.81627" stroke-miterlimit="10"/>
<path d="M77.0493 12.6864C78.3545 12.6864 79.4126 11.7238 79.4126 10.5364C79.4126 9.34892 78.3545 8.38631 77.0493 8.38631C75.7441 8.38631 74.686 9.34892 74.686 10.5364C74.686 11.7238 75.7441 12.6864 77.0493 12.6864Z" stroke="white" stroke-width="0.604783" stroke-miterlimit="10"/>
<path d="M71.223 12.7617C72.5282 12.7617 73.5863 11.7991 73.5863 10.6117C73.5863 9.42426 72.5282 8.46165 71.223 8.46165C69.9178 8.46165 68.8597 9.42426 68.8597 10.6117C68.8597 11.7991 69.9178 12.7617 71.223 12.7617Z" stroke="white" stroke-width="0.604783" stroke-miterlimit="10"/>
<path d="M70.0673 14.465L73.307 12.9019L73.8674 12.6303L74.2353 13.1858L74.8208 14.0724L73.5034 14.1057L74.0177 13.2208L74.4087 12.5462L75 12.9142L77.7292 14.6121L77.577 14.9188L74.374 14.1688L75.3563 13.8622L74.842 14.7488L74.2161 15.8282L73.5246 14.7839L72.9372 13.8972L73.8655 14.1811L70.3293 15.066L70.0673 14.465Z" fill="white"/>
<path d="M74.688 10.2437H73.5497" stroke="white" stroke-width="0.9091" stroke-miterlimit="10"/>
<path d="M79.3895 10.2437L81.0459 9.73732" stroke="white" stroke-width="0.9091" stroke-miterlimit="10"/>
<path d="M68.8616 10.2437L66.7102 9.17833" stroke="white" stroke-width="0.9091" stroke-miterlimit="10"/>
<path d="M74.582 20.5454H73.5651L73.0778 19.3661H75.1598L74.582 20.5454Z" fill="white"/>
<path d="M75.1849 24.9208L74.1275 26.1474L73.0527 24.9208C73.2261 23.5984 73.4001 22.2743 73.5747 20.9484H74.6051L75.1849 24.9208Z" fill="white"/>
<path d="M83.9427 18.2622C83.8849 18.2622 83.856 18.2289 83.856 18.1623L83.8984 4.58386C83.8968 4.57317 83.8979 4.56228 83.9017 4.55206C83.9055 4.54183 83.9119 4.53254 83.9203 4.52491C83.9287 4.51728 83.9389 4.51151 83.9501 4.50806C83.9613 4.50461 83.9733 4.50357 83.9851 4.50501H86.6372C86.6673 4.50655 86.6966 4.51449 86.7227 4.52818C86.7488 4.54188 86.771 4.56095 86.7875 4.58386L88.7655 7.19827L90.7417 4.58912C90.7584 4.56597 90.7809 4.54676 90.8073 4.53305C90.8338 4.51935 90.8634 4.51154 90.8938 4.51027H93.5672C93.579 4.50882 93.5909 4.50987 93.6022 4.51332C93.6134 4.51677 93.6236 4.52253 93.632 4.53017C93.6404 4.5378 93.6467 4.54709 93.6505 4.55731C93.6543 4.56754 93.6555 4.57843 93.6539 4.58912L93.6963 18.1675C93.6963 18.2341 93.6674 18.2674 93.6096 18.2674H91.1577C91.0999 18.2674 91.071 18.2341 91.071 18.1675L91.0479 8.08842L88.7655 11.0866L86.5063 8.08317L86.4851 18.1623C86.4851 18.2289 86.4543 18.2622 86.3965 18.2622H83.9427Z" fill="white"/>
<path d="M95.6088 18.2622C95.551 18.2622 95.5222 18.2289 95.5222 18.1623L95.5433 4.58386C95.5417 4.57317 95.5429 4.56228 95.5467 4.55206C95.5505 4.54183 95.5568 4.53254 95.5652 4.52491C95.5736 4.51728 95.5838 4.51151 95.5951 4.50806C95.6063 4.50461 95.6183 4.50357 95.63 4.50501H102.604C102.662 4.50501 102.691 4.53831 102.691 4.60314V6.81802C102.693 6.82872 102.691 6.8396 102.688 6.84983C102.684 6.86005 102.677 6.86934 102.669 6.87698C102.661 6.88461 102.65 6.89037 102.639 6.89383C102.628 6.89728 102.616 6.89832 102.604 6.89687H98.1512V9.98089H102.604C102.616 9.97944 102.628 9.98048 102.639 9.98393C102.65 9.98738 102.661 9.99315 102.669 10.0008C102.677 10.0084 102.684 10.0177 102.688 10.0279C102.691 10.0382 102.693 10.049 102.691 10.0597L102.714 12.2921C102.716 12.3028 102.715 12.3137 102.711 12.324C102.707 12.3342 102.701 12.3435 102.692 12.3511C102.684 12.3587 102.674 12.3645 102.662 12.3679C102.651 12.3714 102.639 12.3724 102.627 12.371H98.1512V15.83H102.625C102.683 15.83 102.712 15.8633 102.712 15.9299V18.1833C102.714 18.194 102.713 18.2049 102.709 18.2151C102.705 18.2253 102.699 18.2346 102.69 18.2423C102.682 18.2499 102.672 18.2557 102.66 18.2591C102.649 18.2626 102.637 18.2636 102.625 18.2622H95.6088Z" fill="white"/>
<path d="M106.818 18.2622C106.761 18.2622 106.732 18.2289 106.732 18.1623V6.89687H103.908C103.893 6.89896 103.878 6.89781 103.864 6.89353C103.849 6.88925 103.836 6.88195 103.826 6.87222C103.815 6.8625 103.807 6.85062 103.802 6.83755C103.797 6.82448 103.796 6.81059 103.798 6.79699L103.822 4.58386C103.82 4.57317 103.821 4.56228 103.825 4.55206C103.829 4.54183 103.835 4.53254 103.843 4.52491C103.852 4.51728 103.862 4.51151 103.873 4.50806C103.884 4.50461 103.896 4.50357 103.908 4.50501H112.163C112.236 4.50501 112.271 4.5313 112.271 4.58386V6.79699C112.271 6.86358 112.242 6.89687 112.184 6.89687H109.34L109.361 18.1623C109.361 18.2289 109.332 18.2622 109.274 18.2622H106.818Z" fill="white"/>
<path d="M113.423 18.2622C113.365 18.2622 113.336 18.2289 113.336 18.1623L113.381 4.58386C113.379 4.57317 113.38 4.56228 113.384 4.55206C113.388 4.54183 113.394 4.53254 113.402 4.52491C113.411 4.51728 113.421 4.51151 113.432 4.50806C113.444 4.50461 113.456 4.50357 113.467 4.50501H117.855C118.614 4.50028 119.361 4.68188 120.016 5.0307C120.664 5.36829 121.206 5.85081 121.591 6.43252C121.983 7.03255 122.183 7.72007 122.169 8.41785C122.176 8.86593 122.095 9.31154 121.93 9.73381C121.792 10.0846 121.601 10.4165 121.364 10.7203C121.198 10.9418 121.004 11.1447 120.786 11.3249C121.555 12.0829 121.974 13.08 121.959 14.111L121.98 18.1623C121.983 18.1757 121.981 18.1894 121.977 18.2023C121.972 18.2153 121.964 18.227 121.954 18.2367C121.943 18.2464 121.931 18.2537 121.917 18.2581C121.902 18.2626 121.887 18.2639 121.873 18.2622H119.419C119.361 18.2622 119.332 18.2411 119.332 18.2026V14.111C119.333 13.8835 119.285 13.658 119.19 13.4475C119.095 13.237 118.956 13.0456 118.779 12.8844C118.607 12.7162 118.398 12.5826 118.166 12.4921C117.934 12.4016 117.684 12.3561 117.431 12.3587H115.996L115.975 18.1693C115.975 18.2359 115.946 18.2692 115.888 18.2692L113.423 18.2622ZM115.987 9.98089H117.855C118.077 9.98065 118.298 9.94027 118.503 9.86207C118.708 9.78387 118.895 9.6694 119.051 9.52529C119.214 9.38362 119.343 9.21337 119.432 9.02484C119.521 8.83631 119.566 8.6334 119.566 8.42837C119.566 8.22333 119.521 8.02042 119.432 7.83189C119.343 7.64336 119.214 7.47312 119.051 7.33144C118.894 7.18579 118.706 7.07051 118.499 6.99252C118.292 6.91453 118.069 6.87544 117.845 6.8776H115.977L115.987 9.98089Z" fill="white"/>
<path d="M127.718 18.4584C126.963 18.4654 126.221 18.277 125.578 17.9152C124.938 17.558 124.405 17.0626 124.026 16.4731C123.637 15.8712 123.438 15.1839 123.448 14.486L123.469 8.2216C123.461 7.52723 123.661 6.84392 124.047 6.24503C124.423 5.65796 124.958 5.16817 125.601 4.82218C126.244 4.47098 126.98 4.28899 127.73 4.29649C128.48 4.28547 129.219 4.46771 129.86 4.82218C130.495 5.17273 131.025 5.66173 131.401 6.24503C131.787 6.84392 131.987 7.52723 131.979 8.2216L132 14.486C132.007 15.1836 131.807 15.87 131.422 16.4731C131.049 17.0635 130.519 17.5594 129.881 17.9152C129.232 18.2811 128.481 18.4697 127.718 18.4584ZM127.718 16.0683C127.936 16.0675 128.15 16.0236 128.347 15.9398C128.544 15.856 128.718 15.7342 128.858 15.5829C129.172 15.2889 129.347 14.8956 129.348 14.486L129.326 8.2216C129.338 7.81256 129.174 7.41545 128.87 7.11416C128.725 6.96641 128.547 6.84923 128.347 6.77083C128.148 6.69243 127.932 6.65471 127.714 6.66032C127.498 6.65713 127.284 6.6949 127.085 6.77123C126.886 6.84756 126.707 6.96077 126.559 7.10364C126.401 7.25145 126.277 7.42656 126.195 7.61858C126.113 7.81061 126.074 8.01566 126.081 8.2216V14.486C126.073 14.9041 126.247 15.3082 126.566 15.6092C126.712 15.7556 126.889 15.8723 127.088 15.9514C127.287 16.0306 127.501 16.0704 127.718 16.0683Z" fill="white"/>
</svg>
