<svg id="Capa_1" data-name="Capa 1" xmlns="http://www.w3.org/2000/svg" viewBox="0 0 729.46 535.78"><path d="M23.15,452.82c3.12-31.75,31.75-61.45,64.07-66.74,14.41-2.35,28.89-1.1,43.34-1.22,4.48,0,5.38-1.36,5.53-5.61.3-8.17-1.23-13.63-9.08-19.1C87.49,332.58,67.94,293.9,67.6,245.73c-.24-32.76-.09-65.51,0-98.27.1-65.59,50.32-115.91,115.8-116q43.44-.09,86.88,0c9.91,0,13.81,3.87,13.86,13.64,0,8.55.39,17.12-.13,25.63-.33,5.39,1.25,7.67,6.6,9.18,24.77,7,40.68,23.19,47.89,47.92a67.54,67.54,0,0,1,2.61,18.94c.06,33.71.54,67.42-.09,101.11-.94,49.6-22.41,88.28-63.89,115.69-3.6,2.38-6.53,17.75-3.74,20.46,1.52,1.49,3.62.63,5.45.7,13.73.56,27.49-.92,41.21,1.23,36.32,5.69,65.51,37.92,66.46,74.63.62,24.43.45,48.89.12,73.33-.26,18.92-15.81,33.17-35.58,33.18q-135.66.06-271.32,0c-7.12,0-14.24,0-21.36,0-17.4-.06-29.1-8.4-34.95-24.82A11.88,11.88,0,0,0,22,540V460.24C23.64,458,21.91,455.16,23.15,452.82Z" transform="translate(-21.96 -31.4)" fill="#1b396a"/><path d="M751.42,558.54c-3.14,6.61-8.44,8.65-15.6,8.64q-128.15-.23-256.3-.12c-29.81,0-56.93-18.64-65.61-44.7C403.79,492,412.44,463,437.64,443.78A65.4,65.4,0,0,1,478.1,430.4c86.38-.16,172.76,0,259.14-.15,6.76,0,11.29,2.73,14.18,8.62v5.7c-1.38,7.28-6.42,10.3-13.2,10.44-6,.12-7.58,2.94-7.54,8.46q.26,35.23,0,70.46c0,5.52,1.57,8.34,7.54,8.46,6.78.15,11.82,3.16,13.2,10.45Z" transform="translate(-21.96 -31.4)" fill="#1b396a"/><path d="M751.42,552.84c-3.35-7.47-9.56-9.38-17-8.5-4.66.55-5.94-1.15-5.9-5.82q.33-39.81,0-79.64c0-4.66,1.24-6.36,5.9-5.81,7.44.88,13.65-1,17-8.5Z" transform="translate(-21.96 -31.4)" fill="#fefefe"/><path d="M23.15,452.82c.23,2.57.94,5.22-1.19,7.42v-7.13A1.62,1.62,0,0,1,23.15,452.82Z" transform="translate(-21.96 -31.4)" fill="#5d9dfe"/><path d="M564.78,305c35.36,0,70.73-.13,106.09,0,28.83.14,52.65,20.49,56.74,48,5.14,34.59-20.14,65.5-55.15,65.74-71.68.5-143.36.18-215,.13-8.42,0-13.61-4.51-13.65-11.32s5.14-11.2,13.55-11.44c9.14-.26,9.14-.26,9.14-9.55,0-17.8-.14-35.6.11-53.4.06-4.39-1.13-5.58-5.53-5.56-11.9.08-17.18-3.6-17.27-11.16-.09-7.87,5.52-11.51,17.76-11.51Z" transform="translate(-21.96 -31.4)" fill="#1b396a"/><path d="M595.16,134c18.21-.49,34.31,2.81,48.09,13.29C666.43,164.91,675,188.64,670.1,217c-4,23.16-14.11,43.67-31,60.39-15.92,15.77-35,19.6-56.36,14.18a8.72,8.72,0,0,0-4.7.05c-19.86,5-38.64,2.6-53.64-12-24.9-24.18-37.86-53.54-33.82-88.91,3-26.68,28.93-52.11,55.64-55.49,6.61-.84,13.23-1.73,19.85-1.1,4.61.43,6.09-1.69,7-5.64,2.24-9.68,4.67-19.33,7.21-28.95,2.18-8.27,7.59-12.3,14-10.77,6.92,1.66,9.9,7.78,7.86,16.36C599.92,114.53,597.6,123.94,595.16,134Z" transform="translate(-21.96 -31.4)" fill="#1b396a"/><path d="M301.12,189.37c-6.68-5.37-11.43-7.89-18.63-2.93h0c-22.45,8.73-45.6,14.5-69.72,15.61-31.82,1.46-62.16-5.31-91.28-17.81-4.33-1.86-7.16-1.65-10.45,2-5.51,6.19-11.58,11.89-17.55,17.66a9.35,9.35,0,0,0-3.21,7.45c.19,13.28-.14,26.57.19,39.85,1.57,62.9,55.18,113,118.08,110.5,44.39-2.69,76.81-24.2,97.68-63,11.08-20.62,11.64-43.29,12.53-66.21C319.46,214.55,315.48,200.92,301.12,189.37Z" transform="translate(-21.96 -31.4)" fill="#d6e8fe"/><path d="M361.37,449.25c-8.5-27.94-30.2-42.56-61.65-41.59h0a50.47,50.47,0,0,1-6.4-.18c-18.76-2.93-34.23,1.87-45.42,18.2-3.42,5-9.07,6.25-14.64,3.48-19.25-9.57-38.33-10-57.62-.09-5.81,3-10.95,1-15.34-3.6-4.73-5-9.77-9.7-14.47-14.72a10.07,10.07,0,0,0-8.16-3.3c-12.1.17-24.21-.15-36.31.14-31.32.73-55.78,24.86-56.48,56.19-.49,22.29-.2,44.6-.08,66.9.05,9.33,4.66,13.57,14.33,13.58q50.9.08,101.8,0,82.92-.06,165.85-.16c7.58.06,15.17.2,22.75.14,9.79-.09,14.34-4.64,14.35-14.28,0-21.57,0-43.15,0-64.72A54.3,54.3,0,0,0,361.37,449.25Z" transform="translate(-21.96 -31.4)" fill="#93c0fe"/><path d="M318.29,146.65c-.14-25.73-19-45.46-44.66-46.83-8.52-.46-12.23-4.35-12.3-13.11s-.21-17.57.06-26.35c.14-4.47-1-6.43-5.91-6.24-9.48.37-19,.21-28.48.26h0c-13-.05-26.07,0-39.11-.19-8.78-.11-17.56,0-26.09,2.24-55.63,14.34-78.08,61.23-70.18,118.66,4.09-4.73,7.16-8.6,10.57-12.16,7.07-7.37,10.19-7.65,19.37-3.4,28.29,13.08,57.85,21.13,89.24,19.79,25.56-1.09,49.94-7.7,73.19-18.4,16.65-11.66,23.48,4.76,34.31,13.16C318.3,164,318.34,155.33,318.29,146.65Z" transform="translate(-21.96 -31.4)" fill="#93c0fe"/><path d="M158.89,384.33c-1.62-6.83,1.17-7.11,7-5.35,26.33,8,52.77,7.47,79-.49,4.45-1.35,5.16-.43,5.13,3.77-.05,7.62-7.34,19.8-13.95,22.78-2.08.93-3.91,0-5.38-.78-17.61-9.11-35.11-9.14-52.65.08-3.49,1.83-6.25.92-8.55-2.21C165.37,396.53,156.64,393.74,158.89,384.33Z" transform="translate(-21.96 -31.4)" fill="#d6e8fe"/><path d="M588.3,544.29c-36.33,0-72.65.13-109,0-23.19-.12-41.12-14.47-45.85-36.11-5.9-27,13.69-52.76,41.77-54.83,3.55-.27,7.12-.18,10.68-.18,70.75,0,141.5.08,212.25-.16,6.2,0,7.93,1.36,7.83,7.73-.41,25.4-.35,50.81,0,76.21.07,5.74-1.13,7.6-7.27,7.55C661.9,544.13,625.1,544.29,588.3,544.29Z" transform="translate(-21.96 -31.4)" fill="#d6e8fe"/><path d="M583.39,396.12c-29.2,0-58.39-.14-87.58.14-5.36.05-6.77-1.37-6.67-6.69.34-18.75.25-37.5,0-56.25,0-4.22.92-5.69,5.47-5.68,58.86.16,117.73,0,176.59.2,19.59.07,34.61,15.39,34.54,34.23s-15.13,33.82-34.81,34C641.78,396.29,612.58,396.12,583.39,396.12Z" transform="translate(-21.96 -31.4)" fill="#d6e8fe"/><path d="M563.44,156.78c3.61-.14,8.51-.15,13.19,2.25,2.57,1.32,5.47.68,8.31-.13,16.41-4.64,32-2.92,45.77,7.55,16.8,12.81,20.84,30.38,16.3,50.18-3.94,17.18-11.83,32.32-24.72,44.76-7.54,7.27-16.22,10.2-26.5,9.44-2.56-.19-3.58-1-4.4-3.43-1.77-5.21-5.53-8.15-11.27-8-5.41.13-8.81,3.1-10.63,8-.69,1.85-1.07,3.3-3.61,3.47-9.08.6-17.58-.75-24.58-7-17.82-15.94-27.62-36.11-29-59.77C510.7,176.79,532.27,156.83,563.44,156.78Z" transform="translate(-21.96 -31.4)" fill="#c33d00"/><path d="M215.78,464.65a11.13,11.13,0,0,1-11.27,11.17c-5.87-.19-11.44-5.82-11.35-11.46s5.77-11.16,11.63-11.18A11.18,11.18,0,0,1,215.78,464.65Z" transform="translate(-21.96 -31.4)" fill="#1b396a"/><path d="M215.78,510.27a11.13,11.13,0,0,1-11.31,11.14c-5.87-.21-11.42-5.86-11.31-11.49s5.81-11.16,11.66-11.15A11.18,11.18,0,0,1,215.78,510.27Z" transform="translate(-21.96 -31.4)" fill="#1b396a"/></svg>